<?xml version="1.0" encoding="utf-8"?>
<!-- Generator: Adobe Illustrator 19.0.0, SVG Export Plug-In . SVG Version: 6.00 Build 0)  -->
<svg version="1.1" id="layer" xmlns="http://www.w3.org/2000/svg" xmlns:xlink="http://www.w3.org/1999/xlink" x="0px" y="0px"
	 viewBox="-153 -46 652 652" style="enable-background:new -153 -46 652 652;" xml:space="preserve">
<style type="text/css">
	.st0{fill:#00467F;}
	.st1{fill:url(#blue_shield_1_);}
	.st2{fill:url(#SVGID_1_);}
	.st3{fill:url(#SVGID_2_);}
	.st4{fill:url(#SVGID_3_);}
	.st5{fill:url(#SVGID_4_);}
	.st6{fill:url(#SVGID_5_);}
	.st7{fill:url(#SVGID_6_);}
	.st8{fill:url(#SVGID_7_);}
	.st9{fill:#001D43;}
	.st10{fill:#C4940C;}
	.st11{fill:url(#SVGID_8_);}
	.st12{fill:url(#SVGID_9_);}
	.st13{fill:url(#SVGID_10_);}
	.st14{fill:url(#SVGID_11_);}
	.st15{fill:#C4C6C8;}
	.st16{fill:url(#SVGID_12_);}
	.st17{fill:url(#SVGID_13_);}
	.st18{fill:url(#SVGID_14_);}
	.st19{fill:url(#SVGID_15_);}
	.st20{fill:url(#lower_1_);}
	.st21{fill:url(#mid_1_);}
	.st22{fill:url(#top_1_);}
	.st23{fill:url(#yellow_lines_1_);}
	.st24{fill:url(#SVGID_16_);}
	.st25{fill:url(#SVGID_17_);}
	.st26{fill:url(#SVGID_18_);}
	.st27{fill:url(#SVGID_19_);}
	.st28{fill:url(#SVGID_20_);}
	.st29{fill:#D9A40F;}
	.st30{fill:url(#SVGID_21_);}
	.st31{fill:url(#SVGID_22_);}
	.st32{fill:url(#SVGID_23_);}
	.st33{fill:#003767;}
</style>
<path class="st0" d="M51.3,229.2c5.6,4,8.1,9.8,8.1,15.5c0,8.7-4.4,12.4-7.4,14.7c-2.2,1.9-5.9,3.5-8,4.3c-0.5,0.3-0.3,1.2,0.3,2.5
	c2.6,5,11.1,18.2,14.8,23.1c4,5.4,6.8,8.7,9.5,11.4c4.2,4.1,8,5.3,10.3,5.3c1,0,1.7,0.4,1.7,0.8c0,0.3-0.5,0.7-1.6,1
	c-1,0.4-3.1,0.5-5,0.5c-8,0-13.2-4.3-18-10.2c-6.7-8.4-17.6-26.2-19.5-28.4c-1.3-1.4-2.5-2.6-4-3c-1.3-0.4-3.1-0.7-6.5-0.5
	c-0.7,0-1.2,0.5-1.3,1c-0.3,1.3-0.4,17.8-0.3,23c0.1,5.9,0.7,10.6,1,11.8c0.5,1.6,1.4,2.8,6.1,3.6c1.4,0.3,2,0.5,2,1s-1,0.9-2.6,0.9
	c-2.7,0-5.2-0.6-9.7-0.6c-4.8,0-8.6,0.6-11.1,0.6c-1.3,0-2.2-0.3-2.2-0.9c0-0.5,0.9-0.8,2.6-1.2c4.1-0.8,5.5-1.9,5.9-7.4
	c0.4-7.4,0.7-17.1,0.7-35.8c0-18.1-0.5-24.9-0.8-29.1c-0.3-3.7-0.5-5.6-6-6.5c-1.2-0.3-2.2-0.5-2.2-1.2c0-0.4,0.7-0.8,2.4-0.8
	c1.8,0,5,0.5,9.7,0.5c4.8,0,9.7-0.7,14-0.7C41.9,224.7,47,226.1,51.3,229.2z M25.3,227.6c-0.3,0.1-0.7,0.1-0.8,2.2
	c-0.1,2.6-0.1,30-0.1,32.1c0,1.9,0.5,2.3,0.9,2.3c0.8,0.1,2.5,0.1,3.5,0.1c3.8,0,11.9-1,14.5-2.7c3.7-2.6,7.8-7.9,7.8-14.9
	c0-6.9-2.1-11.8-5.5-14.9c-3.5-3.2-8.2-5.2-16.1-5.2C27.9,226.7,25.9,227.2,25.3,227.6z M64.8,274c0-7.7,3.2-15.4,11.7-21.5
	c4.9-3.7,10.7-5.5,16.9-5.5c16.2,0,28.5,12.6,28.5,28c0,13.2-9.4,22-16.3,24.8c-3.7,1.6-7.6,2.6-11.8,2.6
	C77.4,302.4,64.8,289.2,64.8,274z M105.5,297.4c4.2-3.3,9.2-10.7,9.2-21.8c0-8.1-2.4-15.4-7.6-20.5c-3.2-3.3-8.2-6.4-15.3-6.4
	c-4.8,0-10.1,2.8-13.4,6.3c-4.8,4.9-6.2,12.1-6.2,19.4c0,6.2,2.6,13.5,6.5,17.8c5.4,6.4,11,8.3,16.8,8.3
	C99.2,300.5,102.6,299.5,105.5,297.4z M173.7,250.2c0.4,0.1,1.1,0.9,1.1,1.5c-0.2,2,0.1,6.3,0.1,7.1c0.1,1.3-0.3,2.2-0.7,2.2
	c-0.5,0-0.6-0.6-0.8-1.3c-0.8-3-1.9-5.3-4.8-7.3c-2.8-2-6.5-3.7-13.3-3.7c-6.5,0-12.4,2.8-16,6.5c-3.7,3.8-6.7,11-6.7,19.2
	c0,7.8,3.7,15.3,7.6,19.2c4.5,4.6,11.1,6.8,16.4,6.8c5.2,0,7.9-0.8,10.4-2.4c3.3-2.1,5.8-5,7.1-8.4c0.5-1.1,0.7-1.6,1.1-1.6
	c0.3,0,0.5,0.9,0.5,1.7c0,1.7-1.1,4.8-1.4,5.6c-0.2,0.8-0.7,2.2-1.4,2.7c-5.4,2.9-9.6,4.5-17.6,4.5c-11.1,0-17-3.3-22.7-8.3
	c-4-3.5-7.7-11.2-7.7-19.2c0-9.4,4.4-16.3,10.2-21.1c4.9-4,12.4-6.8,20.4-6.8C163.7,247,169.6,248.8,173.7,250.2z M185,256.1
	c0-3.6-0.6-5.4-4.3-6.1c-1.1-0.2-2-0.6-2-1s1.1-0.7,1.9-0.7c1.5,0,4.4,0.3,7.3,0.3c2.3,0,6.7-0.3,7.8-0.3c1,0,1.8,0.1,1.8,0.6
	c0,0.6-1.1,1-1.8,1.1c-2.9,0.6-3.9,1.7-4,4.4c0,1.8-0.2,15.7-0.1,16.7c0.1,0.8,0.2,1.6,0.8,1.6c2.3,0,15.2,0,23.7,0
	c7.7,0,8.5,0,9.1-0.1c0.7-0.1,0.8-0.4,0.9-1c0.2-1.2,0.1-12,0-14.9c-0.2-4.8-1-6.1-4.2-6.5c-1-0.2-2.2-0.6-2.2-1
	c0-0.6,0.9-0.8,2.2-0.8c3.9,0,4.2,0.3,7.8,0.3c2.8,0,4.8-0.3,6.9-0.3c1.6,0,2.3,0.2,2.3,0.7c0,0.3-0.7,0.8-1.8,0.9
	c-4,0.6-4.5,2.4-4.5,5.7c0,2.1-0.1,14.8,0,20.5c0.1,5.6,0.2,13.9,0.2,16.5c0,4.7,0.5,5.7,5,6.7c1.1,0.2,1.8,0.4,1.8,1
	c0,0.4-0.8,0.7-1.9,0.7c-1.5,0-6.5-0.3-8.3-0.3c-2.4,0-6,0.3-7.1,0.3c-1.6,0-2.3-0.2-2.3-0.7c0-0.6,0.9-0.8,1.7-1
	c3.4-0.6,4.1-1,4.4-4.5c0.1-1.5,0.1-8.3,0.1-17.4c0-1-0.7-1.9-0.9-1.9c-1.6-0.2-6.8-0.3-18.5-0.3c-5.9,0-13.4,0-14.6,0
	c-0.5,0-0.8,0.6-0.8,1.7c0,17.6,0.2,18.6,0.5,19.5c0.3,1.7,1.4,2.1,4,2.8c1.3,0.3,1.9,0.7,1.9,1.1c0,0.7-1.5,0.7-2,0.7
	c-1.7,0-5.3-0.3-8.1-0.3c-2.4,0-5.6,0.3-6.9,0.3c-0.9,0-2.3-0.1-2.3-0.8c0-0.3,1.1-0.8,2-0.9c3.9-0.8,4-1.8,4.2-4.1
	c0.2-2.4,0.3-7.8,0.3-20.9L185,256.1C184.9,256.1,185,256.1,185,256.1z M243.3,249.1c0-0.4,0.7-0.8,1.4-0.8c2.3,0,5.3,0.3,7.5,0.3
	c4.9,0,15.4-0.2,19.1-0.2c3.3,0,6.1-0.1,6.9-0.1c0.5,0,0.8,0.8,0.9,1.3c0.1,0.9,0.5,4.8,0.7,6.4c0.1,0.9-0.1,1.6-0.6,1.6
	c-0.3,0-0.7-0.6-1-1.3c-1.7-3.8-3.2-5.2-4.5-5.4c-1.5-0.2-1.8-0.3-16.8-0.3c-0.6,0-0.9,0.2-0.9,1.2c0,4.6-0.1,17.4,0,19.8
	c0,0.4,0.2,0.9,0.7,0.9h9.8c4.5,0,6.5-0.4,7.4-0.9c0.6-0.3,1.3-1,2.2-3.3c0.2-0.7,0.6-1.3,1-1.3c0.3,0,0.5,0.4,0.5,1.6
	c0,0.4-0.5,3.8-0.6,5c-0.1,1.3-0.1,4.4,0,5c0.1,0.8-0.1,1.7-0.5,1.7c-0.5,0-0.7-0.6-1.2-1.9c-0.6-1.3-1.1-3.1-2.5-3.4
	c-1.4-0.3-4-0.6-16.2-0.6c-0.2,0-0.7,0.3-0.7,1.1c-0.1,2.7,0.2,16.4,0.3,18.1c0.2,3.1,0.3,4.6,2.3,4.8c1.1,0.1,4.4,0.3,9.2,0.3
	c8.3,0,9.1-0.5,10.4-1.5c0.9-0.8,2.2-2.4,3.9-5.3c0.5-0.9,0.9-1.5,1.3-1.5c0.5,0,0.6,0.8,0,2.4c-0.3,0.9-1.7,5.6-1.9,6.7
	c-0.1,0.6-0.9,1.2-1.6,1.2c-9.6,0-18.7-0.3-26.9-0.3c-2.9,0-6.8,0.3-7.8,0.3c-1,0-2.3,0-2.3-0.7c0-0.4,0.9-0.8,1.8-0.9
	c3.1-0.6,4.4-1.5,4.6-4.8c0.3-5.4,0.3-15.2,0.3-23.7c0-4.3,0-9,0-14.9c0-4.5-1.4-5.4-4.4-6.1c-1-0.2-1.5-0.6-1.5-1L243.3,249.1z
	 M295.6,258.5c0,4.4,2.8,7.5,5.7,9.5c3.3,2.1,6.2,4,9.5,5.9c3.4,2.2,9,6.2,9,13.1c0,9.5-8.8,15.4-17.9,15.4c-4.1,0-9.1-1-12-2.5
	c-1.1-0.3-1.4-1.8-1.7-3.1c-0.1-1.5-0.5-3.3-0.7-6.1c-0.1-1,0-1.9,0.5-1.9c0.5,0,1,0.8,1.5,2.1c0.9,3,2.3,5.4,4.3,6.9
	c2.7,2.1,6.3,2.8,8.5,2.8c7,0,11.1-4.5,11.1-10.3c0-6.1-3.4-9.1-11-13.6c-6.5-3.8-12.4-8.4-12.4-15.8c0-4,1.9-8.2,5.4-10.6
	c3.2-2.4,7.6-3.4,11.5-3.4c4.4,0,8.2,1.3,9.3,1.8c0.7,0.2,1,0.7,1.1,1.1c0,2.4,0.4,5,0.7,6.3c0.2,1.2,0.1,2-0.3,2
	c-0.5,0-0.8-0.6-1.1-1.7c-0.9-2.5-2-4.3-3.7-5.5c-2-1.7-4.8-2.5-7.4-2.5C301.1,248.6,295.6,250.9,295.6,258.5z M362.4,248.7
	c4.1,0,5.7-0.2,7.1-0.8c0.6-0.3,1.1-0.7,1.4-0.5c0.2,0.2,0.2,0.6,0.1,1c-0.3,0.7-0.7,4.4-0.6,8.2c0,1.2-0.2,2.1-0.7,2.1
	c-0.3,0-0.7-0.8-0.8-1.3c-0.2-1.1-1.1-4.3-1.7-5c-0.7-0.9-0.9-1.3-3.7-1.3c-1.9,0-11.5,0-13.3,0c-0.5,0-0.7,1-0.7,1.5l-0.2,29.5
	c0,4.9,0,10.9,0.3,13.5c0.3,2.5,1.6,3.4,4.5,3.9c1.3,0.2,1.9,0.7,1.9,1.1s-1.4,0.7-2.2,0.7c-2.7,0-4.6-0.4-8-0.4
	c-4.7,0-6.7,0.4-8.1,0.4c-1.6,0-2.2-0.3-2.2-0.7c0-0.5,0.8-0.8,1.9-1c4.2-0.6,4.8-1.6,4.9-5.8c0.3-8.4,0.6-40.3,0.6-41.1
	c0-0.4-0.1-1.3-0.6-1.5c-0.8,0-3.2,0-7.1,0c-3.7,0-6.5,0.1-7.6,0.2c-1.7,0.2-3.1,1.3-4,5.8c-0.2,1-0.6,1.6-0.9,1.6
	c-0.5,0-0.7-0.7-0.7-1.7c0-1.8,0.9-5.6,0.9-8.5c0-0.6,0.1-1,0.3-1.2c0.3-0.2,0.6,0,1,0.5c0.3,0.3,1.6,0.6,2.8,0.7
	c1.2,0.1,10.4,0.3,19.7,0.3L362.4,248.7L362.4,248.7z M374.6,249.1c0-0.4,0.7-0.8,1.4-0.8c2.3,0,5.3,0.3,7.5,0.3
	c4.9,0,15.4-0.2,19.1-0.2c3.3,0,6.1-0.1,6.9-0.1c0.5,0,0.8,0.8,0.9,1.3c0.1,0.9,0.5,4.8,0.7,6.4c0.1,0.9-0.1,1.6-0.6,1.6
	c-0.4,0-0.7-0.6-1-1.3c-1.7-3.8-3.2-5.2-4.5-5.4c-1.5-0.2-1.8-0.3-16.8-0.3c-0.6,0-0.9,0.2-0.9,1.2c0,4.6-0.1,17.4,0,19.8
	c0,0.4,0.2,0.9,0.7,0.9h9.8c4.5,0,6.5-0.4,7.4-0.9c0.6-0.3,1.2-1,2.2-3.3c0.2-0.7,0.6-1.3,1-1.3c0.3,0,0.4,0.4,0.4,1.6
	c0,0.4-0.4,3.8-0.6,5c-0.1,1.3-0.1,4.4,0,5c0.1,0.8-0.1,1.7-0.4,1.7c-0.5,0-0.7-0.6-1.3-1.9c-0.6-1.3-1.1-3.1-2.5-3.4
	c-1.4-0.3-4-0.6-16.2-0.6c-0.2,0-0.7,0.3-0.7,1.1c-0.1,2.7,0.2,16.4,0.3,18.1c0.2,3.1,0.3,4.6,2.3,4.8c1.1,0.1,4.4,0.3,9.2,0.3
	c8.3,0,9.1-0.5,10.4-1.5c0.9-0.8,2.2-2.4,3.9-5.3c0.5-0.9,0.9-1.5,1.3-1.5c0.5,0,0.6,0.8,0,2.4c-0.3,0.9-1.7,5.6-1.9,6.7
	c-0.1,0.6-0.9,1.2-1.6,1.2c-9.6,0-18.7-0.3-26.9-0.3c-2.9,0-6.8,0.3-7.8,0.3c-1,0-2.3,0-2.3-0.7c0-0.4,0.9-0.8,1.8-0.9
	c3.1-0.6,4.4-1.5,4.7-4.8c0.3-5.4,0.3-15.2,0.3-23.7c0-4.3,0-9,0-14.9c0-4.5-1.4-5.4-4.4-6.1c-1-0.2-1.5-0.6-1.5-1L374.6,249.1z
	 M429.2,287.7c0,5.9,0.3,7.8,0.5,8.5c0.1,1.8,1.5,2.7,4,3.1c0.8,0.1,1.8,0.4,1.8,0.9c0,0.4-1,0.8-2,0.8c-1.9,0-5.3-0.3-8.5-0.3
	c-3.2,0-4.9,0.3-6.6,0.3c-1.4,0-1.9-0.3-1.9-0.7c0-0.4,0.7-0.8,1.9-1c3.2-0.6,4.1-1.5,4.3-4.5c0.3-4.7,0.3-10.5,0.3-22.5
	c0-11.4,0-15.9-0.1-18.2c-0.1-2.5-0.9-3.7-4.4-4.3c-0.9-0.1-1.7-0.6-1.7-0.9c0-0.4,1-0.7,1.7-0.7c1.3,0,3.4,0.3,6.5,0.3
	c4,0,7.8-0.5,11.8-0.5c5.9,0,9.4,1.1,12.4,3.1c3.7,2.4,5.4,6.1,5.4,9.6c0,6.7-4.6,10.8-10.3,12.6c-0.7,0.2-0.7,0.6-0.2,1.5
	c2,3.7,6.5,10,10,14.6c2.7,3.6,4.6,5.4,6.3,7.1c2.4,2.2,5.1,3.1,7,3.1c1,0,0.8,0.7,0,1.1c-0.8,0.5-2.2,0.7-4.3,0.7
	c-5.9,0-8.7-2.6-12.5-6.5c-4.4-4.7-10.8-14.7-12.7-17.3c-0.9-1-2.6-1.7-3.7-1.9c-0.8-0.1-2.7-0.2-4.1-0.2c-0.5,0-0.8,0.8-0.8,1.6
	L429.2,287.7L429.2,287.7z M430.2,250.7c-0.2,0.1-0.6,0.7-0.7,2.2c-0.1,1.3-0.3,17.9-0.3,19.3c0,0.4,0.2,1.7,0.8,1.7
	c1.4,0.1,3.2,0.1,5,0.1c3.4-0.1,6.1-1,8-2.1c2.5-1.6,5-4.6,5-9.2c0-3.4-1.1-6.2-3.1-8.4c-2.4-2.6-5.9-4.3-10.3-4.3
	C433.8,250,431.2,250.3,430.2,250.7z M375.4,224.7c0,3-1.4,6.5-3.8,8.1c-1,0.6-2.1,1.1-3.2,1.1c-2.6,0-4-2.7-4-5
	c0-3,1.7-6.1,3.7-7.6c1-0.7,2.7-1.2,3.4-1.2C374,220.1,375.4,222.4,375.4,224.7z M368.9,223.5c-1.5,2.5-2.1,5.2-2.1,6.8
	c0,1.2,0.5,2.1,1.7,2.1c0.6,0,1.2-0.4,2.1-1.7c1.1-1.5,2.4-5.2,2.4-7.1c0-1.1-0.3-2.2-1.6-2.2C370.9,221.5,370,221.9,368.9,223.5z
	 M387.4,220.4c0.6,0,0.7,0.2,0.7,0.4c0,0.3-0.3,1-0.7,1.1c-0.3,0.1-1.8,0.1-2.5,0.2c-0.2,0-0.7,0.2-0.8,0.5
	c-1.5,7.1-2.5,10.8-3.1,13.1c-0.7,2.4-1.5,3.5-3.4,4.6c-1.5,0.9-2.5,1.2-3.3,1.2c-0.8,0-2.2-0.6-2.2-1.7c0-0.6,0.3-1.3,0.6-1.5
	c0.2-0.1,0.9-0.3,1.1-0.1c0.8,0.7,1.7,1.4,2.3,1.4c0.8,0,1.4-0.2,2.1-2.8c0.9-3.5,3-13.1,3.3-14.3c0-0.1-0.1-0.4-0.2-0.4l-2.1,0.1
	c-0.1,0-0.4-0.3-0.4-0.4c0-0.5,0.5-1,0.7-1c0.3,0,1.5-0.1,2.1-0.1c0.2,0,0.4-0.3,0.4-0.4c0.9-2.9,2.5-6,4.6-7.4c1.1-0.7,2.3-1,2.8-1
	c2.1,0,3,1.1,3,2.3c0,0.3-0.1,1-0.7,1.4c-0.3,0.2-0.7,0.3-0.9,0.3c-0.2,0-0.6-0.2-0.6-0.4c-0.2-1.3-0.7-2.2-1.9-2.2
	c-0.4,0-1,0.3-1.7,1.2c-0.6,0.9-1.5,3.1-2.1,5.8c0,0.1,0.2,0.3,0.2,0.3L387.4,220.4z M92.9,213.8c1.6,0,2.4,0.3,4.5,0.3
	c1.7,0,2.5-0.1,3.8-0.1c1.1,0,1.5,0.3,1.5,0.6c0,0.4-0.2,0.7-1.4,0.9c-1.5,0.3-2.3,0.6-2.3,2.5c-0.1,2.9,0,6.4,0.1,9.7
	c0.1,3.3,1.5,5.5,2.3,6.1c1,0.7,2.7,1.5,4.5,1.5c3.2,0,6-0.9,6.5-6.9c0.3-3.6,0.2-9.5,0.2-10.1c-0.2-1.6-0.4-2.5-2.8-2.9
	c-0.6-0.1-1.1-0.4-1.1-0.8c0-0.5,0.7-0.6,1.3-0.6c1.3,0,1.1,0.1,2.4,0.1c2,0,3.8-0.3,4.9-0.3c0.8,0,1.2,0.4,1.2,0.5
	c0,0.5-0.5,0.7-1.2,0.9c-1.9,0.5-2.4,1.1-2.5,3.1c-0.1,1.4-0.3,4.1-0.4,7.2c-0.1,4.2-1,8.1-3.6,10.2c-1.5,1.2-3.4,2-6.1,2
	c-2.8,0-5.1-0.9-6.5-2.1c-2.1-1.8-3.2-4.3-3.2-10.5c0-1.4-0.1-7.1-0.2-8c-0.1-0.5-0.2-1.4-2.2-1.9c-0.6-0.2-1.2-0.6-1.2-0.8
	C91.5,213.9,92.1,213.8,92.9,213.8z M123.3,213.8c1.2,0,4.6,0.3,5.7,0.3c0.4,0,0.7,0.2,1,0.7c1,1.2,2.1,2.3,3.4,3.8
	c1.4,1.6,7.9,8.7,10.5,11.4c0.1,0.1,0.4,0.1,0.4-0.2c0.1-2.8,0.3-9.4,0.1-11.8c-0.2-1.5-0.7-2.3-3.1-2.8c-0.4-0.2-1.1-0.4-1.1-0.8
	c0-0.6,1.1-0.6,1.2-0.6c1.7,0,3,0.2,4.3,0.2c1,0,2.3-0.2,3.5-0.2c0.5,0,1.1,0.2,1.1,0.6c0,0.4-0.3,0.5-1.1,0.8
	c-2,0.6-2.4,1.2-2.6,3.2c-0.2,1.9-0.5,8.4-0.5,11.3c0,2.8,0.2,6.2,0.2,6.5c0,0.8-0.2,1.4-0.7,1.4c-0.4,0-1.1-0.4-1.5-0.8
	c-0.9-1-2.8-3.7-5.6-6.7c-2.3-2.5-5.9-6.9-8.9-10c-0.1-0.2-0.5-0.2-0.5,0.2c-0.1,1.7-0.3,9.1-0.1,12.4c0.2,1.6,1.3,2.3,2.8,2.8
	c0.6,0.2,0.9,0.4,0.9,0.8c0,0.5-0.7,0.7-1.2,0.7c-0.2,0-1.7-0.2-3.1-0.2c-1.3,0-3.4,0.3-4.5,0.3c-0.7,0-1.2-0.2-1.2-0.7
	c0-0.3,0.2-0.5,1.2-0.7c2.4-0.6,2.7-1.5,2.9-2.8c0.1-1.3,0.4-6,0.4-10.5c0-2.4-0.1-3.7-0.1-4.1c-0.1-0.4-0.8-1.7-1.8-2.4
	c-0.5-0.4-1-0.6-2.1-0.8c-0.9-0.2-1.3-0.4-1.3-0.8C122,214.1,122.6,213.8,123.3,213.8z M156.8,213.9c0.4,0.1,3.9,0.2,5.4,0.2
	c1.6,0,3.8-0.2,4.9-0.3c0.4-0.1,1.1,0.3,1.1,0.6c0,0.4-0.7,0.8-1.3,0.9c-2.4,0.7-2.6,1.1-2.7,2.9c-0.1,1.1-0.1,3.7-0.1,7
	c0,2.9,0,5.5,0.1,6.5c0.1,2.9,0.5,3.3,2.8,3.9c0.6,0.2,1.2,0.6,1.2,1c0,0.4-0.5,0.5-1,0.5c-1.4,0-2.8-0.2-5-0.2
	c-1.5,0-4.1,0.3-5.1,0.3c-0.8,0-1.2-0.2-1.2-0.6c0-0.5,0.8-0.8,1.2-1c2.4-0.6,2.9-1.2,3-3.1c0.1-0.9,0.1-2.5,0.1-4.1
	c0-5.3,0-8.9-0.1-9.7c-0.2-2.2-1-2.8-3-3.4c-0.9-0.3-1.1-0.7-1.1-1C156.1,214.1,156.2,213.8,156.8,213.9z M174.6,213.8
	c1,0,3,0.3,4.6,0.3c1.5,0,3-0.2,4.2-0.2c1,0,1.3,0.3,1.3,0.6c0,0.3-0.4,0.6-1.2,0.8c-2,0.4-1.9,1.3-1.4,2.4c0.7,1.6,1.4,3.7,2.5,6.3
	c1.2,2.6,2.4,6,3,6.6c0.2,0.2,0.4,0.5,0.6-0.1c0.6-1.4,3.9-9.6,4.8-11.9c0.8-2.3,0.7-2.8-1.4-3.3c-0.5-0.2-1.1-0.5-1.1-0.8
	c0-0.2,0.4-0.6,1.2-0.6c1.4,0,2,0.2,3.3,0.2c1.8,0,3.3-0.3,4.1-0.3c0.6,0,1.1,0.2,1.1,0.5c0,0.5-0.6,0.7-1.3,0.9
	c-1.6,0.4-2.6,1.2-3.8,3.6c-1.2,2.1-2.5,5.6-4.1,9.2c-2.4,5.4-3.2,7.9-3.5,8.5c-0.2,0.6-0.9,1.4-1.3,1.4c-0.4,0-0.7-0.6-0.8-1
	c-0.1-0.4-0.9-3-1.9-5.3c-1.2-2.7-4.7-11.1-6.2-14.1c-0.6-1.1-1.3-1.9-3.1-2.3c-0.5-0.2-1.1-0.4-1.1-0.8
	C173.2,213.9,173.9,213.8,174.6,213.8z M215.1,224.3c2.2,0,2.4-0.3,3.1-2c0.3-0.5,0.6-1,1-1c0.4,0,0.5,0.5,0.5,1.2
	c0,0.4-0.2,1-0.2,2.3c0,1.5,0.2,1.6,0.2,2.7c0,1.1-0.3,1.4-0.7,1.4c-0.3,0-0.6-0.4-0.8-1c-0.4-1-0.7-1.5-1.1-1.7
	c-0.6-0.2-3.6-0.3-4.4-0.2c-0.1,0-0.4,0.4-0.5,0.7c-0.2,0.9-0.2,6,0.1,7.2c0.1,0.2,0.7,0.7,0.9,0.8c0.3,0.2,1.9,0.6,3,0.6
	s2.6-0.1,3.2-0.3c1.6-0.5,2.2-0.7,3.6-3c0.4-0.7,0.7-1,1-1c0.5,0,0.5,0.9,0.5,1.1c0,0.8-1,3.9-1.4,4.5c-0.2,0.4-0.5,0.5-1.6,0.5
	c-4.8,0-4.7-0.3-11.6-0.3c-1.6,0-3.3,0.3-4.6,0.3c-0.7,0-1.5-0.2-1.5-0.7c0-0.5,0.6-0.7,1.2-0.9c2.8-0.7,2.9-1.3,3.1-3
	c0.1-1.4,0.2-4.7,0.2-7.9c0-2.3,0-4.9-0.1-7.1c-0.1-1.1-0.4-1.8-2.5-2.3c-0.6-0.2-1.2-0.4-1.2-0.9c0-0.4,0.6-0.6,1.4-0.6
	c0.9,0,2.5,0.2,4.5,0.2c9.7,0,9.9,0.1,11.1-0.2c0.3-0.1,0.6,0.3,0.6,0.5c0,1.5,0.4,3.6,0.4,4.3c0,0.6-0.4,0.9-0.5,0.9
	c-0.3,0-0.7-0.2-1.1-1c-0.9-1.9-1.5-2.5-3.1-2.7c-0.7-0.1-1.3-0.2-5-0.2c-0.2,0-0.4,0.5-0.5,0.7c-0.2,0.8-0.2,5.9-0.1,7.4
	c0,0.3,0.2,0.5,0.6,0.6C213.5,224.3,214.6,224.3,215.1,224.3z M230.4,214c1.2,0,2.3,0,2.8,0c1.2,0,3.2-0.2,7.4-0.2
	c3.3,0,5.5,0.8,6.6,1.9c1.3,1.2,1.8,2.5,1.8,4c0,3.5-2.8,5.1-4.3,5.6c-0.1,0.1-0.3,0.3-0.2,0.3c1,1.9,3,5.2,5.1,7.5
	c1.2,1.3,2.8,2.5,4.2,2.8c0.8,0.2,0.9,0.3,0.9,0.7c0,0.6-1.2,0.9-3,0.9c-2.1,0-3.9-0.7-6.1-3.1c-0.9-1-3.7-5.6-4.6-6.8
	c-0.5-0.7-1.9-1.4-3.1-1.4c-0.2,0-0.5,0.1-0.8,0.4c-0.1,0.1-0.2,0.3-0.2,0.4c0,1.1,0.1,3.7,0.2,6.5c0.1,1.5,0.9,1.7,2.2,2.1
	c0.4,0.1,1,0.4,1,0.8c0,0.6-0.9,0.7-1.4,0.7c-1.6,0-2.7-0.2-3.9-0.2c-1.6,0-3.1,0.4-4.7,0.4c-0.9,0-1.4-0.3-1.4-0.6
	c0-0.3,0.4-0.7,1.3-0.9c2.3-0.6,2.6-1,2.7-3.2c0.1-1,0.3-5.4,0.3-10.2c0-2.2,0.1-3.4-0.1-4.7c-0.1-1.1-0.1-1.9-2.7-2.3
	c-0.8-0.2-1.3-0.5-1.3-0.8C229.2,214.2,229.8,214,230.4,214z M237.6,215.5c-0.3,0.1-0.5,0.4-0.5,0.8c0,0.5-0.2,7.6-0.2,8
	c0,0.3,0.2,0.6,0.5,0.6c2.2,0,4.8-0.4,5.5-0.9c0.8-0.6,2.1-1.9,2.1-3.9c0-2.1-1.6-4.9-6-4.9C238.5,215.2,237.9,215.3,237.6,215.5z
	 M273.6,214c0.4,0.1,0.5,0.7,0.5,1.2c0,1.5,0.1,2.6-0.1,3.3c-0.2,1-0.6,1.1-0.7,1.1c-0.5,0-0.7-0.6-0.8-1.2
	c-0.4-1.5-1.1-2.3-1.7-2.8c-0.7-0.6-1.8-1-3-1c-2.5,0-4.2,1.8-4.2,3.9c0,1.7,1.4,3.1,3.1,4c1.6,0.9,3,1.6,4.5,2.4
	c2.1,1.2,3.8,3.1,3.8,5.9c0,2.3-1.6,4.2-3,5.2c-1.1,0.7-3.4,1.6-5.6,1.6c-3,0-5.2-0.7-6.4-1.6c-0.4-0.3-0.5-0.8-0.6-1.1
	c-0.1-0.6-0.5-3-0.5-3.8c0-1,0.4-1.4,0.7-1.4c0.5,0,0.6,0.6,0.8,1.1c0.3,0.7,0.8,1.7,1.2,2.4c1.3,1.7,3,2.9,5.3,2.9
	c2.8,0,4.2-2,4.2-3.7c0-2-1.1-3-2.9-4.2c-1.5-0.9-2.9-1.6-4-2.3c-1.8-1.2-4.1-3.1-4.1-6.2c0-3.8,3.1-6.6,8.2-6.6
	C270.7,213.2,272.2,213.8,273.6,214z M283.2,213.9c0.4,0.1,3.9,0.2,5.4,0.2c1.6,0,3.8-0.2,4.9-0.3c0.4-0.1,1.1,0.3,1.1,0.6
	c0,0.4-0.7,0.8-1.3,0.9c-2.4,0.7-2.6,1.1-2.7,2.9c-0.1,1.1-0.1,3.7-0.1,7c0,2.9,0,5.5,0.1,6.5c0.1,2.9,0.5,3.3,2.8,3.9
	c0.6,0.2,1.2,0.6,1.2,1c0,0.4-0.5,0.5-1,0.5c-1.4,0-2.8-0.2-5-0.2c-1.5,0-4.2,0.3-5.1,0.3c-0.8,0-1.2-0.2-1.2-0.6
	c0-0.5,0.8-0.8,1.2-1c2.4-0.6,2.9-1.2,3-3.1c0.1-0.9,0.1-2.5,0.1-4.1c0-5.3,0-8.9-0.1-9.7c-0.2-2.2-1-2.8-3-3.4
	c-0.9-0.3-1.1-0.7-1.1-1C282.5,214.1,282.6,213.8,283.2,213.9z M316.7,214c5.7,0,6.2-0.4,7.4-1.2c0.2-0.1,0.8,0.2,0.8,0.8
	c-0.1,2.3,0.2,4.4,0.2,4.9c0,0.7-0.5,1.1-0.7,1.1c-0.4,0-0.7-0.4-0.8-0.9c-0.9-2.6-1.7-2.8-2.8-2.8c-1.1-0.1-3.9,0-5.5,0.2
	c-0.2,0-0.4,0.5-0.4,0.7c-0.1,0.8-0.1,6.4-0.1,11.5c0,2.8,0.1,4.5,0.4,5.3c0.3,1.2,0.8,1.4,2.8,1.9c0.9,0.2,1.3,0.5,1.3,0.9
	s-0.7,0.7-1.4,0.7c-2.1,0-2.6-0.2-5.1-0.2c-1.3,0-4,0.3-5.3,0.3c-0.7,0-1.3-0.3-1.3-0.7c0-0.4,0.8-0.7,1.4-0.8
	c2.8-0.7,2.9-1.3,3-3.3c0.2-4.4,0.3-9.7,0.3-15.6c0-0.1-0.2-0.6-0.5-0.6c-0.9-0.2-4-0.4-5.1-0.3c-1,0.1-1.7,0.6-2.5,1.9
	c-0.6,0.9-0.8,1.4-1.2,1.4c-0.4,0-0.6-0.6-0.6-1c0.1-1,0.6-3.3,0.6-4.6c0-0.6,0.6-0.9,0.8-0.9c0.4,0,0.7,0.4,0.9,0.6
	c0.5,0.4,1.5,0.8,6.8,0.8L316.7,214L316.7,214L316.7,214z M331.1,213.8c1,0,3.5,0.3,5,0.3c1.7,0,2.5-0.2,3.5-0.2
	c0.6,0,1.2,0.3,1.2,0.6c0,0.4-0.5,0.8-1.1,0.9c-1.5,0.4-1.4,1.1-1,1.9c0.4,1.1,2.6,5,4.2,7.8c0.1,0.2,0.5,0.1,0.5,0
	c0.3-0.5,3.7-6.4,4.5-8.1c0.5-1,0.4-1.3-1.1-1.7c-0.9-0.3-1.1-0.5-1.1-0.8c0-0.3,0.5-0.6,1.2-0.6c1.3,0,1.4,0.2,2.8,0.2
	c0.8,0,3.7-0.2,4-0.2c0.5,0,1.2,0.2,1.2,0.5c0,0.6-0.8,0.9-1.2,0.9c-2.4,0.4-2.8,1.1-4.4,3c-1.4,1.7-3.9,6.1-5,8.1
	c-0.2,0.4-0.4,0.7-0.4,1.9c-0.1,1.1-0.1,4,0.1,5.2c0.2,1.2,0.8,1.7,2.4,2.1c0.8,0.2,1.4,0.4,1.4,0.8c0,0.4-0.4,0.7-1.3,0.7
	c-1.9,0-1.9-0.2-3.8-0.2c-1.4,0-4,0.3-5.8,0.3c-0.9,0-1.3-0.2-1.3-0.7c0-0.2,0.4-0.6,1-0.7c2.6-0.6,3.2-1.2,3.2-2
	c0.1-1,0.2-4,0.2-4.9c0-1.2-0.1-1.3-0.4-2.1c-0.7-1.7-3.7-6.9-4.8-8.3c-1.4-2.1-1.9-2.7-3.9-3.3c-0.8-0.2-1.1-0.5-1.1-0.9
	C329.9,214.1,330.4,213.8,331.1,213.8z M62.7,314.8c0.9,0,3.2,0.3,6.1,0.3c0.2,0,0.7,0.7,0.7,0.7c0.2,0.6,0.6,1.9,1.4,3.6
	c1.1,2.6,4.8,9.7,6,12c0.1,0.2,0.4,0.1,0.5-0.2c0.7-1,5.4-10.6,6.2-12.2c0.7-1.3,1-2.4,1.3-3.4c0.1-0.3,0.4-0.6,0.6-0.6
	c2.9,0,4.1-0.3,6.3-0.3c0.5,0,1.1,0.1,1.1,0.6c0,0.3-0.4,0.6-1.7,0.9c-2.3,0.4-2.9,1.7-2.9,2.5c0,6.1,0.1,10.6,0.3,13.9
	c0.2,2.8,0.6,3.7,2.9,4.1c1.1,0.1,1.5,0.4,1.5,0.8c0,0.5-1,0.7-1.5,0.7c-1.9,0-3.6-0.3-5-0.3c-1.5,0-2.3,0.2-3.7,0.2
	c-0.9,0-1.4-0.3-1.4-0.7s0.3-0.6,1.4-0.9c1.1-0.4,1.8-1.2,1.9-2.8c0.1-1.7,0.1-8.2,0.1-12.4c0-0.4-0.4-0.3-0.5-0.1
	c-3.4,7.2-6.3,12.8-7.2,15.5c-0.3,0.8-0.8,1.4-1.2,1.4c-0.4,0-1-1-2-3.7c-1.2-3.4-4.2-9.3-6-13.1c-0.2-0.4-0.4,0-0.5,0.1
	c-0.4,3.1-0.5,10-0.4,12.7c0.1,0.9,0.3,2,2.4,2.5c0.5,0.1,1.1,0.4,1.1,0.8c0,0.5-0.5,0.7-1.3,0.7c-1,0-2.4-0.2-3.4-0.2
	c-0.7,0-3.7,0.3-4.3,0.3c-0.7,0-1.2-0.3-1.2-0.7c0-0.4,0.6-0.6,1.4-0.8c1.9-0.5,2.7-1.4,3-3.5c0.6-3.6,1.4-13.1,1.4-14.2
	c0-1.5-0.5-2.2-2.9-2.8c-1.2-0.4-1.4-0.6-1.4-0.9C61.4,315.1,61.7,314.8,62.7,314.8z M108.9,325.4c2.2,0,2.4-0.2,3.1-2
	c0.3-0.5,0.6-1,1-1c0.4,0,0.5,0.5,0.5,1.2c0,0.4-0.2,1-0.2,2.3c0,1.5,0.2,1.6,0.2,2.7c0,1.1-0.3,1.4-0.7,1.4c-0.3,0-0.6-0.4-0.8-1
	c-0.5-1-0.7-1.5-1.1-1.7c-0.6-0.2-3.6-0.3-4.4-0.2c-0.2,0-0.4,0.4-0.5,0.7c-0.2,0.9-0.2,6,0.1,7.2c0.1,0.2,0.7,0.7,0.9,0.8
	c0.3,0.2,1.9,0.6,3,0.6s2.6-0.1,3.2-0.3c1.6-0.5,2.2-0.7,3.6-3c0.4-0.7,0.7-1,1-1c0.5,0,0.5,0.9,0.5,1.1c0,0.8-1,3.9-1.4,4.4
	c-0.2,0.4-0.5,0.5-1.6,0.5c-4.8,0-4.7-0.2-11.6-0.2c-1.6,0-3.3,0.2-4.6,0.2c-0.7,0-1.5-0.2-1.5-0.7c0-0.5,0.6-0.7,1.2-0.9
	c2.8-0.7,2.9-1.3,3.1-3c0.1-1.4,0.2-4.7,0.2-7.9c0-2.3,0-4.9-0.1-7.1c-0.1-1.1-0.4-1.8-2.5-2.3c-0.6-0.1-1.2-0.4-1.2-0.9
	c0-0.4,0.6-0.6,1.4-0.6c0.9,0,2.5,0.2,4.5,0.2c9.7,0,9.9,0.1,11.1-0.2c0.3-0.1,0.6,0.3,0.6,0.5c0,1.5,0.4,3.6,0.4,4.3
	c0,0.6-0.4,0.9-0.5,0.9c-0.3,0-0.7-0.2-1.1-1c-0.9-1.9-1.5-2.5-3.1-2.7c-0.7-0.1-1.3-0.2-5-0.2c-0.2,0-0.4,0.5-0.5,0.7
	c-0.2,0.8-0.2,5.9-0.1,7.4c0,0.2,0.2,0.5,0.6,0.6C107.3,325.4,108.4,325.4,108.9,325.4z M143.5,335.8c-1.8,1.2-4.8,2.3-9.6,2.3
	c-3.3,0-6.7-0.3-8.3-0.3c-0.6,0-0.9,0.1-1.6,0.1c-0.8,0-1.4-0.3-1.4-0.7c0-0.5,0.8-0.6,1.3-0.7c3-0.5,3.1-1.6,3.3-2.6
	c0.1-1.1,0.2-1.6,0.2-4c0-1.8-0.1-8.8-0.1-11.2c0-1.4-0.9-1.8-3.2-2.2c-0.7-0.1-1.2-0.5-1.2-0.7c0-0.5,0.6-0.7,1.4-0.7
	c1-0.1,2.2-0.1,3.2-0.1c1.7,0,5-0.3,6.6-0.3c4.2,0,7.4,0.6,9.7,2.2c2.8,1.9,4.8,5.4,4.8,9C148.6,330.9,146.2,334,143.5,335.8z
	 M141.3,318.9c-1.8-1.7-4.1-2.8-6.9-2.8c-0.4,0-1.6,0.2-2.2,0.5c-0.4,0.2-0.7,0.5-0.7,0.7c-0.1,1-0.2,1.8-0.2,8.8
	c0,2.9,0.1,5.8,0.2,6.7c0.2,1.2,0.4,2.1,0.9,2.5c1.3,1,2.3,1.4,3.3,1.4c1.1,0,3.4-0.5,4.7-1.4c1.7-1,3.8-3.9,3.8-8.9
	C144.2,323.4,143,320.6,141.3,318.9z M153.8,314.9c0.4,0.1,3.9,0.2,5.4,0.2c1.6,0,3.8-0.2,4.9-0.3c0.4-0.1,1.1,0.3,1.1,0.6
	c0,0.4-0.7,0.8-1.3,0.9c-2.4,0.7-2.6,1.1-2.7,2.9c-0.1,1.1-0.1,3.7-0.1,7c0,2.9,0,5.5,0.1,6.5c0.1,2.9,0.5,3.3,2.8,3.9
	c0.6,0.2,1.2,0.6,1.2,1c0,0.4-0.5,0.5-1,0.5c-1.4,0-2.8-0.1-5-0.1c-1.5,0-4.1,0.3-5.1,0.3c-0.8,0-1.2-0.2-1.2-0.6
	c0-0.5,0.8-0.8,1.2-1c2.4-0.6,2.9-1.2,3-3.1c0.1-0.9,0.1-2.5,0.1-4.1c0-5.3,0-8.9-0.1-9.7c-0.2-2.2-1-2.8-3-3.4
	c-0.9-0.3-1.1-0.7-1.1-1C153.1,315.1,153.3,314.8,153.8,314.9z M174,317.5c2-1.8,5.8-3.3,10-3.3c3.1,0,6.1,0.8,7.3,1.1
	c0.2,0.1,0.5,1.3,0.5,1.4c0,1.3,0.3,3.6,0.3,3.9c0,0.7-0.6,1-0.8,1c-0.2,0-0.3-0.2-0.5-0.7c-0.6-1.3-0.9-2.1-1.6-2.9
	c-1.3-1.3-3.3-2.3-5.9-2.3c-2.9,0-5.1,1.6-6,2.4c-1.2,1.1-2.7,4.1-2.7,7.5c0,3.4,1.2,6.5,3.1,8.3c2.2,2,4.7,3,6.5,3
	c2.2,0,4.5-0.8,5.6-2.6c0.4-0.6,0.8-1.1,1.2-1.8c0.3-0.6,1-1.1,1.4-1.1c0.2,0,0.4,0.4,0.4,0.6c-0.4,1.3-1.1,4-1.4,4.7
	c-0.1,0.1-0.7,0.6-1.2,0.8c-1.8,0.6-4.1,1.1-6.7,1.1c-3.7,0-8-1.4-10.3-3.9c-2-2.1-3.3-4.8-3.3-8.3
	C169.8,322.6,171.6,319.6,174,317.5z M210.7,314.8c0.3,1.7,0.5,2.5,0.6,2.7c0.7,1.9,5,12.7,6.2,15.5c1.1,2.5,1.5,2.9,3.6,3.5
	c0.9,0.3,1.2,0.5,1.2,0.8c0,0.4-0.5,0.8-1.1,0.8c-2.4,0-4.3-0.3-6-0.3c-1.2,0-2.1,0.1-3.7,0.1c-0.8,0-1.2-0.4-1.2-0.7
	c0-0.3,0.4-0.6,1.2-0.8c1.5-0.4,2-1.2,2-1.8c0-0.4-0.9-3-1.2-3.8c-0.1-0.3-0.3-0.5-1.2-0.5c-0.7-0.1-4.1-0.1-5.9,0
	c-1,0.1-1.4,0.1-1.6,0.3c-0.4,0.9-1.2,2.9-1.2,3.9s0.3,1.5,2,2c0.6,0.2,1.1,0.3,1.1,0.8c0,0.4-0.6,0.6-1.2,0.6
	c-1.3,0-2.4-0.1-3.7-0.1c-1.7,0-2.9,0.3-4.2,0.3c-0.5,0-1-0.2-1-0.6c0-0.4,0.5-0.6,1.2-0.8c1.8-0.5,2.5-0.9,3.8-3.3
	c0.8-1.6,5-11.4,5.6-13c0.7-1.5,1.1-2.6,1.2-3.3c0.1-0.3,0.3-0.6,0.6-0.9c0.3-0.5,0.9-0.9,1.3-1.3c0.4-0.6,0.6-0.6,0.9-0.6
	C210.3,314.2,210.6,314.5,210.7,314.8z M211.4,327.8c-0.9-2.4-2.6-6.8-2.9-7.4c0-0.1-0.4-0.2-0.5-0.1c-0.9,2.3-2.3,5.5-3,7.5
	c0,0.2,0.2,0.5,0.4,0.5c0.9,0.1,4.9,0.1,5.7-0.1C211.2,328.3,211.5,328.1,211.4,327.8z M227.8,314.8c0.7,0,2.1,0.2,4.4,0.2
	c1.7,0,3.9-0.1,5.3-0.2c0.4-0.1,0.8,0.2,0.8,0.5c0,0.4-0.4,0.8-1.6,1.1c-1.3,0.3-2.1,1-2.2,1.9c-0.2,2-0.3,8.8-0.3,12.1
	c0,1.7,0.1,3.2,0.2,4.7c0,0.3,0.6,1,1.1,1.1c1.5,0.2,3.6,0.2,4.7,0.1c0.9-0.1,1.5-0.1,2.2-0.7c0.8-0.6,1.7-1.6,2.5-2.9
	c0.6-1,1-1.2,1.3-1.2c0.3,0,0.5,0.9,0.3,1.4c-0.6,1.1-1.2,2.6-1.9,4.2c-0.2,0.5-0.5,0.9-0.7,0.9c-0.5,0.1-1.7,0.1-3.2,0.1
	c-1.9,0-4.4-0.3-7.9-0.3c-3.4,0-3.9,0.2-5.7,0.2c-0.9,0-1.4-0.3-1.4-0.6c0-0.4,0.3-0.7,1.4-0.9c2.6-0.4,2.9-1.5,3-2.8
	c0.1-1,0.2-1.9,0.2-8.8c0-2,0-4.1-0.1-6.1c-0.1-1.5-0.5-2.1-2.3-2.5c-1.3-0.3-1.5-0.7-1.5-1.1C226.5,315,226.9,314.8,227.8,314.8z
	 M267.2,317.5c2-1.8,5.8-3.3,10-3.3c3.1,0,6.1,0.8,7.3,1.1c0.2,0.1,0.5,1.3,0.5,1.4c0,1.3,0.3,3.6,0.3,3.9c0,0.7-0.6,1-0.8,1
	c-0.2,0-0.3-0.2-0.5-0.7c-0.6-1.3-0.9-2.1-1.6-2.9c-1.3-1.3-3.3-2.3-5.9-2.3c-2.9,0-5.1,1.6-6,2.4c-1.2,1.1-2.7,4.1-2.7,7.5
	c0,3.4,1.2,6.5,3.1,8.3c2.2,2,4.7,3,6.5,3c2.2,0,4.5-0.8,5.6-2.6c0.4-0.6,0.8-1.1,1.2-1.8c0.3-0.6,1-1.1,1.4-1.1
	c0.2,0,0.4,0.4,0.4,0.6c-0.4,1.3-1.1,4-1.4,4.7c-0.1,0.1-0.7,0.6-1.2,0.8c-1.8,0.6-4.1,1.1-6.7,1.1c-3.7,0-8-1.4-10.3-3.9
	c-2-2.1-3.3-4.8-3.3-8.3C263,322.6,264.8,319.6,267.2,317.5z M302.2,325.4c2.2,0,2.4-0.2,3.1-2c0.3-0.5,0.6-1,1-1
	c0.4,0,0.5,0.5,0.5,1.2c0,0.4-0.2,1-0.2,2.3c0,1.5,0.2,1.6,0.2,2.7c0,1.1-0.3,1.4-0.7,1.4c-0.3,0-0.6-0.4-0.8-1
	c-0.5-1-0.7-1.5-1.1-1.7c-0.6-0.2-3.6-0.3-4.4-0.2c-0.2,0-0.4,0.4-0.5,0.7c-0.1,0.9-0.2,6,0.1,7.2c0.1,0.2,0.7,0.7,0.9,0.8
	c0.3,0.2,1.9,0.6,3,0.6c1.2,0,2.6-0.1,3.2-0.3c1.6-0.5,2.2-0.7,3.6-3c0.4-0.7,0.7-1,1-1c0.5,0,0.5,0.9,0.5,1.1c0,0.8-1,3.9-1.4,4.4
	c-0.2,0.4-0.5,0.5-1.6,0.5c-4.8,0-4.7-0.2-11.6-0.2c-1.6,0-3.3,0.2-4.5,0.2c-0.7,0-1.5-0.2-1.5-0.7c0-0.5,0.6-0.7,1.2-0.9
	c2.8-0.7,2.9-1.3,3.1-3c0.1-1.4,0.2-4.7,0.2-7.9c0-2.3,0-4.9-0.1-7.1c-0.1-1.1-0.4-1.8-2.5-2.3c-0.6-0.1-1.2-0.4-1.2-0.9
	c0-0.4,0.6-0.6,1.4-0.6c0.9,0,2.5,0.2,4.5,0.2c9.7,0,9.9,0.1,11.1-0.2c0.3-0.1,0.6,0.3,0.6,0.5c0,1.5,0.4,3.6,0.4,4.3
	c0,0.6-0.4,0.9-0.5,0.9c-0.2,0-0.7-0.2-1.1-1c-0.9-1.9-1.5-2.5-3.1-2.7c-0.7-0.1-1.3-0.2-5-0.2c-0.2,0-0.4,0.5-0.5,0.7
	c-0.2,0.8-0.2,5.9-0.1,7.4c0,0.2,0.2,0.5,0.6,0.6C300.6,325.4,301.7,325.4,302.2,325.4z M316.4,314.8c1.2,0,4.6,0.3,5.7,0.3
	c0.4,0,0.7,0.2,1,0.7c1,1.2,2.1,2.3,3.4,3.8c1.4,1.6,7.9,8.7,10.5,11.4c0.1,0.1,0.4,0.1,0.4-0.2c0.1-2.8,0.3-9.4,0.1-11.8
	c-0.2-1.5-0.7-2.3-3.1-2.8c-0.4-0.2-1.1-0.4-1.1-0.8c0-0.6,1.1-0.6,1.2-0.6c1.7,0,3,0.2,4.3,0.2c1,0,2.3-0.2,3.5-0.2
	c0.5,0,1.1,0.2,1.1,0.6c0,0.4-0.3,0.5-1.1,0.8c-2,0.6-2.4,1.2-2.6,3.2c-0.2,1.9-0.5,8.4-0.5,11.3c0,2.8,0.2,6.2,0.2,6.5
	c0,0.8-0.2,1.4-0.7,1.4c-0.4,0-1.1-0.4-1.5-0.8c-0.9-1-2.8-3.7-5.6-6.7c-2.3-2.5-5.9-6.9-8.9-10c-0.1-0.2-0.5-0.2-0.5,0.2
	c-0.1,1.7-0.3,9.1-0.1,12.4c0.1,1.6,1.3,2.3,2.8,2.8c0.6,0.2,0.9,0.4,0.9,0.8c0,0.5-0.7,0.7-1.2,0.7c-0.2,0-1.7-0.2-3.1-0.2
	c-1.3,0-3.4,0.3-4.5,0.3c-0.7,0-1.2-0.1-1.2-0.7c0-0.3,0.2-0.5,1.2-0.7c2.4-0.6,2.7-1.5,2.9-2.8c0.1-1.3,0.4-6,0.4-10.5
	c0-2.4-0.1-3.7-0.1-4.1c-0.1-0.4-0.8-1.7-1.8-2.4c-0.5-0.4-1-0.6-2.1-0.8c-0.9-0.2-1.3-0.4-1.3-0.8
	C315.1,315.1,315.7,314.8,316.4,314.8z M362.7,315c5.7,0,6.2-0.4,7.4-1.2c0.2-0.1,0.8,0.2,0.8,0.8c-0.1,2.3,0.1,4.4,0.1,4.9
	c0,0.7-0.5,1.1-0.7,1.1c-0.4,0-0.7-0.4-0.8-0.9c-0.9-2.6-1.7-2.8-2.8-2.8c-1.1-0.1-3.9,0-5.5,0.2c-0.2,0-0.4,0.5-0.4,0.7
	c-0.1,0.8-0.1,6.4-0.1,11.5c0,2.8,0.1,4.5,0.4,5.3c0.3,1.2,0.8,1.4,2.8,1.9c0.9,0.2,1.3,0.5,1.3,0.9c0,0.4-0.7,0.7-1.4,0.7
	c-2.1,0-2.6-0.2-5.1-0.2c-1.3,0-4,0.3-5.3,0.3c-0.7,0-1.3-0.3-1.3-0.7c0-0.4,0.8-0.7,1.4-0.8c2.8-0.7,2.9-1.3,3-3.3
	c0.2-4.5,0.3-9.7,0.3-15.6c0-0.1-0.2-0.6-0.5-0.6c-0.9-0.2-4-0.4-5.1-0.3c-1,0.1-1.7,0.6-2.5,1.9c-0.6,0.9-0.8,1.4-1.2,1.4
	c-0.4,0-0.6-0.6-0.6-1c0.1-1,0.6-3.3,0.6-4.5c0-0.6,0.6-0.9,0.8-0.9c0.4,0,0.7,0.4,0.9,0.6c0.5,0.4,1.5,0.8,6.8,0.8L362.7,315
	L362.7,315z M386.5,325.4c2.2,0,2.4-0.2,3.1-2c0.3-0.5,0.6-1,1-1c0.4,0,0.5,0.5,0.5,1.2c0,0.4-0.2,1-0.2,2.3c0,1.5,0.2,1.6,0.2,2.7
	c0,1.1-0.3,1.4-0.7,1.4c-0.3,0-0.6-0.4-0.8-1c-0.5-1-0.7-1.5-1.1-1.7c-0.6-0.2-3.6-0.3-4.4-0.2c-0.2,0-0.4,0.4-0.5,0.7
	c-0.2,0.9-0.2,6,0.1,7.2c0.1,0.2,0.7,0.7,0.9,0.8c0.3,0.2,1.9,0.6,3,0.6c1.2,0,2.6-0.1,3.2-0.3c1.6-0.5,2.2-0.7,3.6-3
	c0.4-0.7,0.7-1,1-1c0.5,0,0.5,0.9,0.5,1.1c0,0.8-1,3.9-1.4,4.4c-0.2,0.4-0.5,0.5-1.6,0.5c-4.8,0-4.7-0.2-11.6-0.2
	c-1.6,0-3.3,0.2-4.5,0.2c-0.7,0-1.5-0.2-1.5-0.7c0-0.5,0.6-0.7,1.2-0.9c2.8-0.7,2.9-1.3,3.1-3c0.1-1.4,0.2-4.7,0.2-7.9
	c0-2.3,0-4.9-0.1-7.1c-0.1-1.1-0.4-1.8-2.5-2.3c-0.6-0.1-1.2-0.4-1.2-0.9c0-0.4,0.6-0.6,1.4-0.6c0.9,0,2.5,0.2,4.5,0.2
	c9.7,0,9.9,0.1,11.1-0.2c0.3-0.1,0.6,0.3,0.6,0.5c0,1.5,0.4,3.6,0.4,4.3c0,0.6-0.4,0.9-0.5,0.9c-0.3,0-0.7-0.2-1.1-1
	c-0.9-1.9-1.5-2.5-3.1-2.7c-0.7-0.1-1.3-0.2-5-0.2c-0.2,0-0.4,0.5-0.5,0.7c-0.1,0.8-0.2,5.9-0.1,7.4c0,0.2,0.2,0.5,0.6,0.6
	C384.9,325.4,386.1,325.4,386.5,325.4z M401.3,315c1.2,0,2.3,0,2.8,0c1.2,0,3.2-0.2,7.4-0.2c3.3,0,5.5,0.8,6.6,1.9
	c1.3,1.2,1.8,2.5,1.8,4c0,3.5-2.8,5.1-4.3,5.6c-0.1,0.1-0.3,0.3-0.2,0.3c1,1.9,3,5.2,5.1,7.5c1.2,1.3,2.8,2.5,4.2,2.8
	c0.8,0.2,0.9,0.3,0.9,0.7c0,0.6-1.2,0.9-3,0.9c-2.1,0-3.9-0.7-6.1-3.1c-0.9-1-3.7-5.6-4.5-6.8c-0.5-0.7-1.9-1.4-3.1-1.4
	c-0.2,0-0.5,0.1-0.8,0.4c-0.1,0.1-0.2,0.3-0.2,0.4c0,1.1,0.1,3.7,0.2,6.5c0.1,1.5,0.9,1.7,2.2,2.1c0.4,0.1,1,0.4,1,0.8
	c0,0.6-0.9,0.7-1.4,0.7c-1.6,0-2.7-0.2-3.9-0.2c-1.6,0-3.1,0.4-4.7,0.4c-0.9,0-1.4-0.3-1.4-0.6c0-0.3,0.4-0.7,1.3-0.9
	c2.3-0.6,2.6-1,2.7-3.2c0.1-1,0.3-5.4,0.3-10.2c0-2.2,0.1-3.4-0.1-4.7c-0.1-1.1-0.2-1.9-2.7-2.3c-0.8-0.2-1.3-0.5-1.3-0.8
	C400.1,315.2,400.7,315,401.3,315z M408.5,316.5c-0.3,0.1-0.5,0.4-0.5,0.8c0,0.5-0.2,7.6-0.2,8c0,0.3,0.2,0.6,0.5,0.6
	c2.2,0,4.8-0.4,5.5-0.9c0.8-0.6,2.1-1.9,2.1-3.9c0-2.1-1.6-4.9-6-4.9C409.4,316.3,408.8,316.4,408.5,316.5z"/>
<linearGradient id="blue_shield_1_" gradientUnits="userSpaceOnUse" x1="181.7908" y1="1065.9353" x2="289.6921" y2="1065.9353" gradientTransform="matrix(1 0 0 1 -305 -791)">
	<stop  offset="0" style="stop-color:#002B54"/>
	<stop  offset="0.5306" style="stop-color:#00467F"/>
	<stop  offset="1" style="stop-color:#002B54"/>
</linearGradient>
<path id="blue_shield_4_" class="st1" d="M-19.6,267.9v-39.5c0.3-0.7,4.3-9.6,4.3-9.6l-2.5-0.4c-0.2,0-24.8-4.1-51.4-4.1
	c-26.6,0-51.2,4.1-51.4,4.1l-2.5,0.4c0,0,4,8.9,4.3,9.6v39.5c0,6,1.4,15.6,3.9,22.3c1.4,3.7,3.2,7.8,5.7,11.9
	c8.2,13.8,20.5,24.5,36.4,31.8l2.8,1.3l0.9,0.4l3.6-1.7c16-7.3,28.2-18,36.4-31.8c2.5-4.2,4.3-8.2,5.7-12c0,0,0,0,0,0
	C-21,282.6-19.6,272.2-19.6,267.9z"/>
<linearGradient id="SVGID_1_" gradientUnits="userSpaceOnUse" x1="193.0097" y1="1105.8445" x2="235.8165" y2="1105.8445" gradientTransform="matrix(1 0 0 1 -305 -791)">
	<stop  offset="0" style="stop-color:#00467F;stop-opacity:0"/>
	<stop  offset="0.5204" style="stop-color:#00467F"/>
	<stop  offset="1" style="stop-color:#002B54"/>
</linearGradient>
<path class="st2" d="M-102.9,294.5c-0.1-0.2-0.2-0.4-0.2-0.4l-8.9,3.1c0.8,1.6,1.7,3.3,2.7,4.9c8.2,13.8,20.5,24.5,36.4,31.8
	l2.8,1.3c0.5,0.2,0.8,0.3,0.9,0.4v-10.4c0,0-14-6.5-20.8-13.6C-96.3,305.3-100.6,298.6-102.9,294.5z"/>
<g id="yellow_lines_2_">
	
		<linearGradient id="SVGID_2_" gradientUnits="userSpaceOnUse" x1="195.3106" y1="1097.877" x2="276.3616" y2="1097.877" gradientTransform="matrix(1 0 0 1 -305 -791)">
		<stop  offset="0" style="stop-color:#D9A40F"/>
		<stop  offset="0.5092" style="stop-color:#FFDD00"/>
		<stop  offset="1" style="stop-color:#D9A40F"/>
	</linearGradient>
	<path class="st3" d="M-70.1,327.9l0.2,0.1l0.7,0.3l1-0.4l0,0c14.8-6.7,26.1-16.6,33.6-29.2c2.7-4.6,4.7-9.2,6-13.2
		c-0.5-0.1-1.1-0.1-1.6-0.2c-1.3,3.8-3.1,8.2-5.7,12.5c-7.3,12.4-18.4,22-32.9,28.6c0,0-0.2,0.1-0.4,0.2c-0.1,0-0.3-0.2-0.3-0.2l0,0
		c-14.5-6.6-25.5-16.2-32.8-28.6c-2.5-4.3-4.4-8.8-5.7-12.5c-0.6,0.1-1.1,0.1-1.6,0.1c1.3,3.9,3.3,8.7,6,13.2
		C-96.2,311.4-84.9,321.2-70.1,327.9z"/>
	
		<linearGradient id="SVGID_3_" gradientUnits="userSpaceOnUse" x1="249.64" y1="1032.0339" x2="284.1041" y2="1032.0339" gradientTransform="matrix(1 0 0 1 -305 -791)">
		<stop  offset="0" style="stop-color:#D9A40F"/>
		<stop  offset="0.5092" style="stop-color:#FFDD00"/>
		<stop  offset="1" style="stop-color:#D9A40F"/>
	</linearGradient>
	<path class="st4" d="M-25,226.8v36.6c0.5,0.1,1.1,0.1,1.6,0.2v-36.3c0,0,1.5-3.2,2.5-5.4c-5.4-0.8-18.7-2.6-34.5-3.3v1.6
		c13.8,0.7,25.7,2.1,32.2,3C-23.9,224.8-25,226.8-25,226.8z"/>
	
		<linearGradient id="SVGID_4_" gradientUnits="userSpaceOnUse" x1="191.259" y1="1033.1379" x2="222.0358" y2="1033.1379" gradientTransform="matrix(1 0 0 1 -305 -791)">
		<stop  offset="0" style="stop-color:#D9A40F"/>
		<stop  offset="0.5092" style="stop-color:#FFDD00"/>
		<stop  offset="1" style="stop-color:#D9A40F"/>
	</linearGradient>
	<path class="st5" d="M-111.4,225.2c6.7-0.9,17-2,28.5-2.5V221c-11.2,0.5-21.4,1.6-28.7,2.6l-2.1,0.3c0,0,1.1,2.4,1.4,2.9v36.5
		c0.5-0.1,1-0.1,1.6-0.2v-36.8C-110.8,226.3-111.2,225.6-111.4,225.2z"/>
	
		<linearGradient id="SVGID_5_" gradientUnits="userSpaceOnUse" x1="187.5789" y1="1032.0178" x2="222.0358" y2="1032.0178" gradientTransform="matrix(1 0 0 1 -305 -791)">
		<stop  offset="0" style="stop-color:#D9A40F"/>
		<stop  offset="0.5092" style="stop-color:#FFDD00"/>
		<stop  offset="1" style="stop-color:#D9A40F"/>
	</linearGradient>
	<path class="st6" d="M-114.9,263.5c0.5-0.1,1-0.1,1.6-0.2V227c0,0-1.1-2.2-1.8-3.9c6.5-0.9,18.4-2.4,32.2-3v-1.6
		c-15.7,0.7-29.1,2.5-34.5,3.3c1,2.2,2.5,5.6,2.5,5.6S-114.9,263.5-114.9,263.5z"/>
	
		<linearGradient id="SVGID_6_" gradientUnits="userSpaceOnUse" x1="192.7453" y1="1099.3846" x2="278.9127" y2="1099.3846" gradientTransform="matrix(1 0 0 1 -305 -791)">
		<stop  offset="0" style="stop-color:#D9A40F"/>
		<stop  offset="0.5092" style="stop-color:#FFDD00"/>
		<stop  offset="1" style="stop-color:#D9A40F"/>
	</linearGradient>
	<path class="st7" d="M-27.7,285.7c-1.3,4.1-3.3,8.8-6.1,13.6c-7.6,12.8-19.1,22.8-34,29.6c0,0-0.8,0.4-1.4,0.6
		c-0.6-0.3-1.3-0.6-1.3-0.6c-14.9-6.8-26.4-16.7-34-29.6c-2.8-4.6-4.8-9.6-6.1-13.6c-0.6,0.1-1.1,0.1-1.6,0.2
		c1.4,4.2,3.5,9.3,6.4,14.2c7.8,13.1,19.5,23.3,34.7,30.2c0,0,1.2,0.6,2,0.9c0.8-0.4,2-0.9,2-0.9c15.2-6.9,26.9-17.1,34.7-30.2
		c2.9-5,5-10,6.3-14.2C-26.6,285.8-27.1,285.7-27.7,285.7z"/>
	
		<linearGradient id="SVGID_7_" gradientUnits="userSpaceOnUse" x1="249.6435" y1="1033.1558" x2="280.4276" y2="1033.1558" gradientTransform="matrix(1 0 0 1 -305 -791)">
		<stop  offset="0" style="stop-color:#D9A40F"/>
		<stop  offset="0.5092" style="stop-color:#FFDD00"/>
		<stop  offset="1" style="stop-color:#D9A40F"/>
	</linearGradient>
	<path class="st8" d="M-27.5,226.1v37c0.5,0.1,1.1,0.1,1.6,0.2v-36.7c0.2-0.4,1.4-2.7,1.4-2.7l-2.1-0.3c-7.3-1-17.4-2-28.7-2.6v1.6
		c11.5,0.6,21.7,1.7,28.5,2.5C-27.2,225.5-27.5,226.1-27.5,226.1z"/>
</g>
<path class="st9" d="M-123.2,218.8l4.3,9.7c0,0,4-1.1,6.1-1.7c2.1-0.6,2.9-0.8,2.9-0.8s-0.7-0.4-1.7-1c-1.3-0.8-3.2-1.8-4.8-2.7
	C-119.2,220.9-123.2,218.8-123.2,218.8z"/>
<path class="st10" d="M-115.1,223.1c-0.4-0.2-0.9-0.5-1.3-0.7c-0.3-0.2-0.6-0.4-1-0.5c0.9,2.1,2.3,5.2,2.5,5.5
	c0.6-0.2,1.1-0.3,1.6-0.4C-113.3,227-114.4,224.8-115.1,223.1z"/>
<path class="st10" d="M-111.4,225.2c-0.1,0-0.1-0.1-0.2-0.1c-0.6-0.4-1.3-0.8-2.1-1.2c0.1,0.2,1.1,2.4,1.4,2.8
	c0.7-0.2,1.2-0.3,1.6-0.4C-110.8,226.3-111.2,225.6-111.4,225.2z"/>
<path class="st9" d="M-15.3,218.8l-4.3,9.6l-8.5-2.4c0,0,1-0.7,2.1-1.3c1.3-0.8,3.3-1.8,4.9-2.7C-18.4,220.4-15.3,218.8-15.3,218.8z
	"/>
<path class="st10" d="M-26.9,225.2c-0.3,0.4-0.6,0.9-0.6,1l1.6,0.4v0c0.2-0.4,1.4-2.7,1.4-2.7l-0.1,0c-0.5,0.3-1,0.6-1.4,0.8
	C-26.3,224.8-26.6,225-26.9,225.2C-26.9,225.2-26.9,225.2-26.9,225.2z"/>
<path class="st10" d="M-23.2,223.1C-23.2,223.1-23.2,223.1-23.2,223.1c-0.7,1.7-1.7,3.7-1.7,3.7l0,0l1.6,0.5v0c0,0,1.5-3.2,2.5-5.4
	c0,0,0,0,0,0c-0.1,0-0.2,0.1-0.3,0.1C-21.8,222.3-22.5,222.7-23.2,223.1z"/>
<linearGradient id="SVGID_8_" gradientUnits="userSpaceOnUse" x1="196.951" y1="1091.1957" x2="274.3358" y2="1091.1957" gradientTransform="matrix(1 0 0 1 -305 -791)">
	<stop  offset="0" style="stop-color:#D9A40F"/>
	<stop  offset="0.5092" style="stop-color:#FFDD00"/>
	<stop  offset="1" style="stop-color:#D9A40F"/>
</linearGradient>
<path class="st11" d="M-69.3,281.7c-10.2,0-18.5,8.3-18.5,18.5c0,10.2,8.3,18.5,18.5,18.5s18.5-8.3,18.5-18.5
	C-50.9,290-59.1,281.7-69.3,281.7z M-69.3,316.8c-9.1,0-16.5-7.4-16.5-16.5c0-9.1,7.4-16.5,16.5-16.5s16.5,7.4,16.5,16.5
	C-52.9,309.4-60.2,316.8-69.3,316.8z"/>
<linearGradient id="SVGID_9_" gradientUnits="userSpaceOnUse" x1="235.6914" y1="1080.6477" x2="235.6914" y2="1075.2888" gradientTransform="matrix(1 0 0 1 -305 -791)">
	<stop  offset="0" style="stop-color:#C58930"/>
	<stop  offset="0.7092" style="stop-color:#A2671F"/>
</linearGradient>
<path class="st12" d="M-79.3,287.1c2.8-2.1,6.2-3.4,10-3.4c3.8,0,7.2,1.3,10,3.4c1.1,0.1,2.2,0.1,3.3,0.2c-3.4-3.5-8.1-5.7-13.3-5.7
	c-5.2,0-9.9,2.2-13.2,5.6C-81.5,287.2-80.4,287.2-79.3,287.1z"/>
<linearGradient id="SVGID_10_" gradientUnits="userSpaceOnUse" x1="198.7095" y1="1081.8663" x2="273.2139" y2="1081.8663" gradientTransform="matrix(1 0 0 1 -305 -791)">
	<stop  offset="1.230000e-002" style="stop-color:#FFFFFF;stop-opacity:0.55"/>
	<stop  offset="0.5031" style="stop-color:#FFFFFF"/>
	<stop  offset="1" style="stop-color:#FFFFFF;stop-opacity:0.79"/>
	<stop  offset="1" style="stop-color:#FFFFFF;stop-opacity:0.55"/>
</linearGradient>
<path class="st13" d="M-64.8,290.5c-0.1,0-0.1,0-0.1,0c-0.3-0.1-0.6,0-0.7,0.3c-0.1,0.2,0.2,0.5,0.5,0.5c0.3,0.1,0.6,0,0.7-0.2
	c0.2,0.1,0.3,0.1,0.3,0.1C-64.3,290.8-64.6,290.6-64.8,290.5z"/>
<linearGradient id="SVGID_11_" gradientUnits="userSpaceOnUse" x1="220.0422" y1="1091.2742" x2="251.3157" y2="1091.2742" gradientTransform="matrix(1 0 0 1 -305 -791)">
	<stop  offset="0" style="stop-color:#C6CFE2"/>
	<stop  offset="2.650000e-002" style="stop-color:#C9D2E3"/>
	<stop  offset="0.3216" style="stop-color:#E8EAF2"/>
	<stop  offset="0.5031" style="stop-color:#F6F6F9"/>
	<stop  offset="1" style="stop-color:#EDF3F8"/>
</linearGradient>
<path class="st14" d="M-69.3,284.6c-8.6,0-15.6,7-15.6,15.7c0,8.7,7,15.7,15.6,15.7c8.6,0,15.6-7,15.6-15.7
	C-53.7,291.6-60.7,284.6-69.3,284.6z M-71.3,287.3c0,0,1.4-0.4,2.1-0.7l1.7-0.2c0.2,0.1,0.4,0.2,0.5,0.3c0.3,0.6-0.4,1.8-0.5,2.4
	c0,0,0,0.1,0,0.1c-0.3,0-0.6,0-1,0l-0.1,0h-0.2c-0.2,0-0.2,0-0.9-0.1l-1.2-0.2c-0.1-0.2-0.1-0.5-0.2-0.7
	C-71.2,287.9-71.4,287.7-71.3,287.3z M-66.1,311.4c-0.6,0.4-1.4,0.7-2.3,0.7c0,0.1,0,0.3,0,0.3c0,0.5-0.2,1.5-0.7,1.9
	c-0.3-0.1-0.4-0.1-0.6-0.3c-0.3-0.3-0.2-0.6-0.3-0.9c-0.1-0.4-0.1-0.7-0.1-1.1c-0.5-0.1-1-0.3-1.4-0.5c-0.9-0.6-1.4-1.1-1.5-1.8
	c-0.1-1,0.6-1.7,0.9-1.6c0.4,0.2-0.4,0.8,0,1.5c0.3,0.7,1.3,1,1.9,1.1c0-0.1,0-0.3-0.1-0.4c0-0.6-0.1-0.6-0.1-1.3
	c0-0.5,0.1-1,0.3-1.4c0,0,0,0,0,0c0.2-0.3,0-0.8,0-1.2c-0.1-0.5-0.2-1-0.2-1.5c0-0.1,0-0.1,0-0.2c0-0.2-0.1-0.5-0.1-0.7
	c0.4,0,0.9,0,1.7,0l0.1,0l0.8,0c0.1,0.1,0.2,0.2,0.2,0.3c0.1,0.3,0,0.8,0,1.2c-0.1,0.4-0.2,0.8-0.2,0.9c-0.1,0.7-0.1,1.1-0.2,1.5
	c0,0.5-0.1,1-0.1,1.8c0,0.2,0,0.5-0.1,0.7c0.4-0.1,0.8-0.3,1.2-0.6c0.5-0.4,0.6-1.1,0.2-1.5c0,0,0,0,0,0c-0.1-0.1-0.2-0.2-0.4-0.2
	l0.2-1.5l0.1-0.7c0.1,0,0.3,0.1,0.4,0.1c1,0.3,1.9,0.9,2,2.2C-64.3,309.4-64.8,310.4-66.1,311.4z M-62.2,300.4
	c-0.7,1.6-1.6,2-2.2,2.3c-0.5,0.2-0.9,0.3-1.5,0.4c-0.5,0.1-1.1,0.1-1.7,0.1c-0.3,0-0.7,0-1,0c-0.1,0-1.7-0.1-2.7,0.1
	c-0.5,0.1-0.8,0.3-0.7,0.7c0.1,0.2,0.2,0.3,0.5,0.4c0.1,0,0.2,0.1,0.3,0.1c0,0,0.1,0,0.1,0.1l0,0.1l0,0.2c0,0.4,0.1,0.7,0.1,1
	l0.1,0.6l0.1,0.4c0,0.1,0.1,0.3,0.1,0.3c-0.2,0-0.4-0.1-0.5-0.1c-0.1,0-0.3-0.1-0.4-0.1c-0.1,0-0.2-0.1-0.3-0.1
	c-1.7-0.6-3.4-1.8-2.7-3.8c0.2-0.6,1-2.1,3.1-2.4c0.2,0,0.4-0.1,0.7-0.1c0.6-0.1,1.3-0.1,2-0.2c0.6,0,1.1-0.1,1.6-0.1
	c0.8,0,1.4-0.1,1.6-0.2c0.5-0.3,0.9-1.1,0.2-2c-0.1-0.2-0.3-0.3-0.5-0.3c-0.1-0.1-0.3,0-0.4,0c0-0.2,0-0.3,0-0.4s0-0.2,0-0.3
	c-0.1-0.3-0.3-0.5-0.5-0.7c0,0-0.1-0.1-0.1-0.1c0,0,0-0.1,0-0.2c0-0.2,0-0.5,0-0.6l0-0.2c0-0.2,0-0.5,0.1-0.7c0.3,0,0.5,0,0.8,0
	c0.1,0,0.2,0,0.3,0c0.8,0.1,2.6,0.6,3.4,2.2C-61.8,298.3-61.8,299.5-62.2,300.4z M-67.8,296.6c0.2,0.2,0.4,0.4,0.5,0.6
	c0,0.1,0,0.4-0.1,0.7c-0.1,0.4-0.2,0.8-0.2,0.9c0,0.2,0,0.4-0.1,0.7l-0.4,0l-1.1,0h0c-0.5,0-0.9,0.1-1.3,0.1c0-0.2,0-0.3,0-0.4
	c0,0,0-0.1,0-0.1c-0.1-0.9-0.1-1.2-0.4-2c-0.1-0.4-0.2-0.8-0.3-1.2c0-0.1,0-0.2,0-0.3c0-0.2,0.2-0.3,0.3-0.6
	c0.3-0.5,0.3-1.3,0.3-1.9c0.5,0,0.9,0,1.1,0.1c0.2,0,0.6,0.2,1,0.3l0.5,0.2v0.5c0,0.3,0,0.6-0.1,0.8
	C-67.9,295.5-68,296.3-67.8,296.6z M-61.2,292.6c-0.2,0.2-2.4,0.7-3.4,0.8c-1,0.1-2.3-0.1-2.5-0.2c-0.1,0-0.2-0.1-0.2-0.1
	c-0.6-0.2-1.3-0.6-1.8-0.6c-0.3-0.1-1-0.1-1.8-0.1c-0.5,0-1,0.1-1.5,0.3c-1,0.4-1.4,0.8-1.6,1.6c-0.3,1.1,0.8,1.7,1.4,1.7
	c0,0,0.1,0,0.1,0c0.2,0,0.4,0,0.6,0c0,0,0,0.1,0,0.1c0.1,0.4,0.2,0.7,0.3,1.1l0,0.1c0.2,0.8,0.3,1,0.3,1.8c-0.1,0-0.2,0-0.4,0
	c-0.3,0-0.7,0-1,0c-1.3,0-2.6-0.2-3.7-1.1c-0.7-0.6-1-1.4-1.2-2c-0.2-0.6-0.8-3,1.9-5.3c0.6-0.5,2.1-1.4,4.3-1.2c0.1,0,0.1,0,0.2,0
	c2.3,0.3,1.8,0.2,2.4,0.3c0.5,0,0.9,0.1,1.3,0c0.2,0,0.3-0.1,0.4-0.1c0.5-0.2,1.2-0.5,2.2-0.3c1,0.2,0.8,0.3,1,0.4
	c0.2,0.1,0.7,0.3,0.9,0.4c0.2,0.1,1.3,0.5,1.5,0.6c0.2,0.1,0.2,0.3,0.2,0.4C-61,291.6-61,292.3-61.2,292.6z"/>
<path class="st15" d="M-68.5,284.6C-68.5,284.6-68.5,284.6-68.5,284.6c-0.2,0-0.5,0-0.7,0c-1.9,0-3.6,0.3-4.9,0.7
	c-1.3,0.4-2.5,1-3.6,1.7c0.2,0,4.6-0.1,7.9-0.2c0.3-0.1,0.5-0.2,0.7-0.3l1.7-0.2c0.2,0.1,0.4,0.2,0.5,0.3c0,0.1,0,0.1,0.1,0.2
	c2.9,0,5.9,0.1,6,0.1C-63.1,285.6-65.7,284.7-68.5,284.6z"/>
<linearGradient id="SVGID_12_" gradientUnits="userSpaceOnUse" x1="189.4565" y1="1012.9035" x2="282.2216" y2="1012.9035" gradientTransform="matrix(1 0 0 1 -305 -791)">
	<stop  offset="0" style="stop-color:#F9A01B"/>
	<stop  offset="0.5092" style="stop-color:#FFDD00"/>
	<stop  offset="1" style="stop-color:#F9A01B"/>
</linearGradient>
<path class="st16" d="M-81.1,225.7c0.2-0.1,0.5-0.2,0.6-0.3c0.2-0.1,0.3-0.2,0.4-0.2c0.1-0.1,0.2-0.1,0.2-0.2c0,0,0-0.2,0.1-0.3
	c0-0.2,0-0.4,0-0.7c0-0.3,0-0.7,0-1.1v-0.4V222v-0.5V221c0-0.4,0-0.8,0-1.1c0-0.3,0-0.5,0-0.7c0-0.2,0-0.3-0.1-0.3
	c0-0.1-0.1-0.1-0.2-0.2s-0.2-0.1-0.4-0.2c-0.2-0.1-0.4-0.1-0.6-0.2v-0.2c0.2,0,0.4,0,0.6,0c0.2,0,0.4,0,0.6-0.1c0.2,0,0.4,0,0.6-0.1
	c0.2,0,0.4-0.1,0.6-0.1c0.2,0,0.5-0.1,0.5-0.1c0,0,0,0.2,0,0.4s0,0.3,0,0.5c0,0.2,0,0.4,0,0.6c0,0.2,0,0.5,0,0.7c0,0.3,0,0.6,0,0.9
	v1v0.5v0.4c0,0.4,0,0.8,0,1.1c0,0.3,0,0.5,0,0.7c0,0.2,0,0.3,0,0.3c0,0.1,0.1,0.1,0.2,0.2c0.1,0.1,0.2,0.2,0.4,0.2
	c0.2,0.1,0.4,0.2,0.6,0.3v0.2c-0.2,0-0.4,0-0.6,0c-0.2,0-0.4,0-0.6-0.1h-0.5c-0.2,0-0.3,0-0.4,0c-0.1,0-0.3,0-0.4,0
	c-0.2,0-0.3,0-0.5,0c-0.2,0-0.4,0-0.5,0c-0.2,0-0.4,0-0.6,0.1C-81.1,225.9-81.1,225.7-81.1,225.7z"/>
<linearGradient id="SVGID_13_" gradientUnits="userSpaceOnUse" x1="189.4007" y1="1013.4549" x2="282.3027" y2="1013.4549" gradientTransform="matrix(1 0 0 1 -305 -791)">
	<stop  offset="0" style="stop-color:#F9A01B"/>
	<stop  offset="0.5092" style="stop-color:#FFDD00"/>
	<stop  offset="1" style="stop-color:#F9A01B"/>
</linearGradient>
<path class="st17" d="M-75.3,220.3c0-0.2,0-0.4,0.1-0.7c0.1-0.2,0.2-0.4,0.3-0.6c0.1-0.2,0.2-0.4,0.4-0.5c0.2-0.2,0.4-0.3,0.5-0.4
	c0.2-0.1,0.4-0.2,0.7-0.3c0.2-0.1,0.5-0.1,0.7-0.1c0.2,0,0.5,0,0.7,0.1c0.2,0.1,0.4,0.2,0.6,0.3c0.2,0.1,0.3,0.3,0.4,0.4
	c0.1,0.2,0.2,0.3,0.3,0.5c0.1,0.2,0.1,0.4,0.1,0.6c0,0.2,0,0.4-0.1,0.6c0,0.2-0.1,0.4-0.2,0.6c-0.1,0.2-0.2,0.4-0.4,0.5
	c-0.2,0.2-0.6,0.5-0.6,0.5c0,0,0.4,0.3,0.6,0.4c0.2,0.2,0.3,0.3,0.4,0.4c0.1,0.2,0.2,0.3,0.3,0.5c0.1,0.2,0.1,0.3,0.2,0.5
	c0,0.2,0.1,0.4,0.1,0.6c0,0.2,0,0.5-0.1,0.7c0,0.2-0.1,0.4-0.2,0.6c-0.1,0.2-0.3,0.4-0.4,0.6c-0.2,0.2-0.3,0.3-0.5,0.5
	c-0.2,0.1-0.4,0.3-0.6,0.3c-0.2,0.1-0.4,0.2-0.6,0.2c-0.2,0-0.4,0.1-0.7,0.1c-0.2,0-0.4,0-0.6-0.1c-0.2,0-0.4-0.1-0.6-0.2
	c-0.2-0.1-0.3-0.2-0.4-0.3c-0.1-0.1-0.2-0.3-0.3-0.4c-0.1-0.2-0.2-0.4-0.2-0.5c0-0.2-0.1-0.4-0.1-0.6c0-0.2,0-0.4,0.1-0.6
	c0-0.2,0.1-0.4,0.2-0.5c0.1-0.2,0.2-0.3,0.3-0.5c0.1-0.2,0.3-0.3,0.5-0.4c0.2-0.1,0.6-0.4,0.6-0.4c0,0-0.4-0.3-0.6-0.5
	c-0.2-0.2-0.3-0.4-0.4-0.5c-0.1-0.2-0.2-0.4-0.2-0.6C-75.3,220.8-75.3,220.5-75.3,220.3 M-74.2,224.6c0,0.3,0,0.5,0.1,0.7
	c0.1,0.2,0.2,0.4,0.3,0.6c0.1,0.2,0.2,0.3,0.4,0.4c0.2,0.1,0.3,0.1,0.5,0.1c0.2,0,0.4-0.1,0.6-0.2s0.3-0.3,0.4-0.5
	c0.1-0.2,0.2-0.5,0.2-0.7c0-0.2,0-0.4-0.1-0.6c-0.1-0.2-0.2-0.3-0.3-0.5c-0.1-0.2-0.3-0.3-0.5-0.5c-0.2-0.2-0.6-0.5-0.7-0.5
	c-0.1,0-0.3,0.3-0.4,0.5c-0.1,0.2-0.2,0.4-0.3,0.6C-74.2,224.2-74.2,224.4-74.2,224.6 M-72,220c0-0.3,0-0.5-0.1-0.8
	c-0.1-0.2-0.2-0.4-0.4-0.5c-0.2-0.1-0.3-0.2-0.5-0.2c-0.2,0-0.3,0-0.5,0.1c-0.1,0.1-0.2,0.2-0.3,0.4c-0.1,0.2-0.1,0.4-0.1,0.5
	c0,0.2,0,0.3,0.1,0.5c0.1,0.2,0.2,0.3,0.3,0.4c0.1,0.2,0.3,0.3,0.5,0.4c0.2,0.1,0.5,0.5,0.6,0.5c0.1,0,0.2-0.3,0.3-0.4
	c0.1-0.1,0.1-0.3,0.2-0.5C-72,220.4-72,220.2-72,220"/>
<linearGradient id="SVGID_14_" gradientUnits="userSpaceOnUse" x1="189.3936" y1="1013.4727" x2="282.2994" y2="1013.4727" gradientTransform="matrix(1 0 0 1 -305 -791)">
	<stop  offset="0" style="stop-color:#F9A01B"/>
	<stop  offset="0.5092" style="stop-color:#FFDD00"/>
	<stop  offset="1" style="stop-color:#F9A01B"/>
</linearGradient>
<path class="st18" d="M-68.9,226.5c0.3-0.1,0.5-0.1,0.8-0.2c0.2-0.1,0.4-0.2,0.6-0.3c0.2-0.1,0.4-0.2,0.5-0.4
	c0.2-0.1,0.3-0.3,0.4-0.4c0.1-0.2,0.2-0.3,0.3-0.5c0.1-0.2,0.1-0.4,0.2-0.5c0-0.2,0.1-0.4,0.1-0.6c0-0.2,0-0.4-0.1-0.6
	c0-0.2-0.1-0.3-0.2-0.5c-0.1-0.1-0.2-0.3-0.4-0.3c-0.2-0.1-0.3-0.2-0.5-0.2c-0.2-0.1-0.4-0.1-0.7-0.1c-0.1,0-0.2,0-0.4,0
	c-0.1,0-0.5,0-0.5,0c0-0.1,0.1-0.5,0.1-0.8c0-0.3,0.1-0.5,0.1-0.8c0-0.3,0.1-0.5,0.1-0.7c0-0.2,0.1-0.5,0.1-0.7
	c0-0.2,0.1-0.4,0.1-0.6c0-0.2,0-0.6,0.1-0.6c0,0,0.3,0.1,0.5,0.1c0.2,0,0.4,0,0.6,0c0.2,0,0.4,0,0.7,0h0.6c0.2,0,0.4,0,0.5,0
	s0.4,0,0.5,0c0.2,0,0.5,0,0.5,0c0,0,0,0.3,0,0.5c0,0.2,0,0.3,0,0.5c0,0.1,0,0.2,0,0.3c0,0.2,0,0.4,0,0.7h-0.1
	c-0.1-0.2-0.2-0.3-0.3-0.3c-0.1,0-0.2-0.1-0.4-0.1h-0.3h-0.6c-0.2,0-0.3,0-0.5,0c-0.2,0-0.3,0-0.5,0h-0.6c0,0.2-0.1,0.4-0.1,0.6
	c0,0.2-0.1,0.4-0.1,0.6c0.2,0,0.4,0,0.5,0c0.3,0,0.5,0,0.8,0.1c0.2,0,0.5,0.1,0.7,0.2c0.2,0.1,0.4,0.2,0.5,0.3
	c0.2,0.1,0.3,0.2,0.4,0.4c0.1,0.1,0.2,0.3,0.3,0.5c0.1,0.2,0.1,0.4,0.2,0.6c0,0.2,0.1,0.4,0.1,0.7c0,0.2,0,0.4,0,0.6
	c0,0.2-0.1,0.4-0.1,0.6c-0.1,0.2-0.2,0.4-0.2,0.5c-0.1,0.2-0.2,0.3-0.3,0.5c-0.1,0.2-0.3,0.3-0.4,0.4c-0.2,0.1-0.3,0.3-0.5,0.4
	c-0.2,0.1-0.4,0.2-0.6,0.3c-0.2,0.1-0.4,0.2-0.7,0.3c-0.2,0.1-0.5,0.1-0.8,0.2c-0.3,0-0.6,0.1-0.8,0.1L-68.9,226.5L-68.9,226.5z"/>
<linearGradient id="SVGID_15_" gradientUnits="userSpaceOnUse" x1="189.4146" y1="1012.9578" x2="282.2758" y2="1012.9578" gradientTransform="matrix(1 0 0 1 -305 -791)">
	<stop  offset="0" style="stop-color:#F9A01B"/>
	<stop  offset="0.5092" style="stop-color:#FFDD00"/>
	<stop  offset="1" style="stop-color:#F9A01B"/>
</linearGradient>
<path class="st19" d="M-62.9,222.1c0-0.2,0-0.5,0-0.7c0-0.2,0.1-0.5,0.1-0.7c0-0.2,0.1-0.4,0.2-0.6c0.1-0.2,0.1-0.4,0.2-0.6
	c0.1-0.2,0.2-0.4,0.3-0.6c0.1-0.2,0.3-0.3,0.4-0.5c0.1-0.1,0.3-0.3,0.4-0.3c0.2-0.1,0.3-0.2,0.5-0.2c0.2,0,0.3-0.1,0.5-0.1
	c0.2,0,0.4,0,0.6,0.1c0.2,0.1,0.4,0.1,0.5,0.2c0.2,0.1,0.3,0.2,0.5,0.3c0.1,0.1,0.3,0.3,0.4,0.4c0.1,0.2,0.2,0.3,0.3,0.5
	c0.1,0.2,0.2,0.4,0.2,0.7c0.1,0.2,0.1,0.5,0.1,0.7c0,0.3,0.1,0.5,0.1,0.8c0,0.3,0,0.6-0.1,0.9c0,0.3-0.1,0.6-0.2,0.8
	c-0.1,0.3-0.2,0.5-0.3,0.7c-0.1,0.2-0.2,0.4-0.3,0.6c-0.1,0.2-0.3,0.4-0.4,0.5c-0.1,0.2-0.3,0.3-0.5,0.4c-0.2,0.1-0.3,0.2-0.5,0.2
	c-0.2,0.1-0.4,0.1-0.5,0.1c-0.2,0-0.4,0-0.6-0.1c-0.2,0-0.4-0.1-0.5-0.2c-0.2-0.1-0.3-0.2-0.5-0.3c-0.1-0.1-0.3-0.3-0.4-0.5
	c-0.1-0.2-0.2-0.4-0.3-0.6c-0.1-0.2-0.2-0.4-0.2-0.7c-0.1-0.2-0.1-0.5-0.1-0.8C-62.9,222.7-62.9,222.4-62.9,222.1 M-59.2,222.6
	c0-0.4,0-0.7,0-1.1c0-0.3,0-0.6-0.1-0.9c0-0.3-0.1-0.5-0.1-0.7c0-0.2-0.1-0.4-0.2-0.6c-0.1-0.2-0.1-0.3-0.2-0.4
	c-0.1-0.1-0.2-0.2-0.2-0.3c-0.1-0.1-0.2-0.1-0.3-0.1c-0.1,0-0.3,0-0.4,0.1c-0.1,0.1-0.2,0.2-0.3,0.3c-0.1,0.2-0.1,0.3-0.2,0.6
	c-0.1,0.2-0.1,0.5-0.1,0.8c0,0.3,0,0.7,0,1c0,0.4,0,0.7,0,1.1c0,0.3,0,0.6,0.1,0.9c0,0.3,0.1,0.5,0.1,0.7c0,0.2,0.1,0.4,0.2,0.6
	c0.1,0.2,0.1,0.3,0.2,0.4c0.1,0.1,0.2,0.2,0.3,0.2c0.1,0.1,0.2,0.1,0.3,0.1c0.2,0,0.3,0,0.4-0.1c0.1-0.1,0.2-0.2,0.3-0.3
	c0.1-0.1,0.1-0.3,0.2-0.6c0-0.2,0.1-0.5,0.1-0.8C-59.2,223.3-59.2,223-59.2,222.6"/>
<g id="highlights_2_">
	
		<radialGradient id="lower_1_" cx="-840.087" cy="1395.6404" r="59.4675" gradientTransform="matrix(1.750000e-002 -1.0032 0.6375 1.120000e-002 -944.2697 -542.9889)" gradientUnits="userSpaceOnUse">
		<stop  offset="0.546" style="stop-color:#0585BD;stop-opacity:0"/>
		<stop  offset="0.9877" style="stop-color:#0585BD;stop-opacity:0.9"/>
	</radialGradient>
	<path id="lower" class="st20" d="M-68.9,286.9c-24.5,0-36,3.6-36,3.6s4.7,10.4,14,20.1c0.3,0.3,0.6,0.6,0.9,0.9
		c0.6,0.6,1.2,1.1,1.7,1.7c7.2,6.4,19.1,12,19.1,12s11-4.6,21.4-14.1c9.5-8.8,14-19.6,14-19.6S-44.4,286.9-68.9,286.9z"/>
	
		<radialGradient id="mid_1_" cx="237.3667" cy="1799.9528" r="77.5735" gradientTransform="matrix(0.9991 0 0 0.4095 -305.7632 -474.8337)" gradientUnits="userSpaceOnUse">
		<stop  offset="0" style="stop-color:#0484BC;stop-opacity:0.87"/>
		<stop  offset="0.546" style="stop-color:#0484BC;stop-opacity:0"/>
	</radialGradient>
	<path id="mid" class="st21" d="M-69.4,261.4c17.5,0,30.8,0.7,40.4,1.6l0,0c0,0,0,0,0,0l0.8-37.1c0,0-19.7-2.6-40.7-2.6
		c-21,0-41.2,2.7-41.2,2.7v37c0,0,0.1,0,0.2,0C-100.1,262.1-86.9,261.4-69.4,261.4z"/>
	
		<radialGradient id="top_1_" cx="236.7141" cy="1008.3729" r="38.3863" gradientTransform="matrix(0.9991 0 0 1.0034 -305.7632 -791.6456)" gradientUnits="userSpaceOnUse">
		<stop  offset="0.546" style="stop-color:#0484BC;stop-opacity:0"/>
		<stop  offset="0.9877" style="stop-color:#0484BC;stop-opacity:0.9"/>
	</radialGradient>
	<path id="top" class="st22" d="M-17.8,218.4c-0.2,0-24.8-4.1-51.4-4.1s-51.2,4.1-51.4,4.1l-2.5,0.4c0.3,0.2,3.7,1.9,6.4,3.4
		c2.8,1.5,6.8,3.8,6.8,3.8s19.6-2.7,41.2-2.7c21.6,0,40.7,2.6,40.7,2.6s0.5-0.4,1.4-0.9c1.1-0.7,2.8-1.5,4.3-2.4
		c2.6-1.5,7.1-3.8,7.1-3.8L-17.8,218.4z"/>
	
		<radialGradient id="yellow_lines_1_" cx="235.8433" cy="1012.8279" r="34.209" gradientTransform="matrix(1 0 0 1 -305 -791)" gradientUnits="userSpaceOnUse">
		<stop  offset="0.5092" style="stop-color:#FAED09;stop-opacity:0"/>
		<stop  offset="1" style="stop-color:#FAED09"/>
	</radialGradient>
	<path id="yellow_lines" class="st23" d="M-23.2,223.1c-6.5-0.9-18.4-2.4-32.2-3v-1.6c15.7,0.7,29.1,2.5,34.5,3.3 M-111.4,225.2
		c6.7-0.9,17-2,28.5-2.5V221c-11.2,0.5-21.4,1.6-28.7,2.6l-2.1,0.3 M-115.1,223.1c6.5-0.9,18.4-2.4,32.2-3v-1.6
		c-15.7,0.7-29.1,2.5-34.5,3.3 M-24.6,223.9l-2.1-0.3c-7.3-1-17.4-2-28.7-2.6v1.6c11.5,0.6,21.7,1.7,28.5,2.5"/>
</g>
<linearGradient id="SVGID_16_" gradientUnits="userSpaceOnUse" x1="196.951" y1="1036.6876" x2="274.3276" y2="1036.6876" gradientTransform="matrix(1 0 0 1 -305 -791)">
	<stop  offset="0" style="stop-color:#D9A40F"/>
	<stop  offset="0.5092" style="stop-color:#FFDD00"/>
	<stop  offset="1" style="stop-color:#D9A40F"/>
</linearGradient>
<path class="st24" d="M-89.1,227.2c-10.2,0-18.5,8.3-18.5,18.5s8.3,18.5,18.5,18.5s18.5-8.3,18.5-18.5S-79,227.2-89.1,227.2z
	 M-89.1,262.3c-9.1,0-16.5-7.4-16.5-16.5c0-9.1,7.4-16.5,16.5-16.5c9.1,0,16.5,7.4,16.5,16.5C-72.7,254.9-80,262.3-89.1,262.3z"/>
<linearGradient id="SVGID_17_" gradientUnits="userSpaceOnUse" x1="196.951" y1="1036.6876" x2="274.3312" y2="1036.6876" gradientTransform="matrix(1 0 0 1 -305 -791)">
	<stop  offset="0" style="stop-color:#D9A40F"/>
	<stop  offset="0.5092" style="stop-color:#FFDD00"/>
	<stop  offset="1" style="stop-color:#D9A40F"/>
</linearGradient>
<path class="st25" d="M-49.1,227.2c-10.2,0-18.5,8.3-18.5,18.5s8.3,18.5,18.5,18.5c10.2,0,18.5-8.3,18.5-18.5
	S-38.9,227.2-49.1,227.2z M-49.1,262.3c-9.1,0-16.5-7.4-16.5-16.5c0-9.1,7.4-16.5,16.5-16.5s16.5,7.4,16.5,16.5
	C-32.7,254.9-40,262.3-49.1,262.3z"/>
<linearGradient id="SVGID_18_" gradientUnits="userSpaceOnUse" x1="200.2198" y1="1036.7662" x2="231.4969" y2="1036.7662" gradientTransform="matrix(1 0 0 1 -305 -791)">
	<stop  offset="0" style="stop-color:#91B0CD"/>
	<stop  offset="0.602" style="stop-color:#EDF3F8"/>
	<stop  offset="0.8367" style="stop-color:#EDF3F8"/>
</linearGradient>
<path class="st26" d="M-91,236c-0.6,0-0.7,0.1-1.1,0.2c-0.5,0.2-1.1,0.5-2.4,0.6c-1.1,0.1-2.2,0.1-3-0.1v14.7
	c0.8,0.1,1.8,0.2,2.9,0.1c2.2-0.2,1.9-0.8,3.6-0.8c0.5,0,0.8,0.1,1.1,0.2v-14.6c0,0-0.3-0.1-0.7-0.2C-90.7,236-90.9,236-91,236z
	 M-83.9,236.8c-1.3-0.1-1.9-0.4-2.4-0.6c-0.4-0.1-0.5-0.2-1.1-0.2c-0.2,0-0.3,0-0.4,0c-0.4,0.1-0.7,0.2-0.7,0.2v14.6
	c0.3-0.1,0.7-0.2,1.1-0.2c1.7,0,1.4,0.6,3.6,0.8c1.1,0.1,2.1,0,2.9-0.1v-14.7C-81.7,236.8-82.8,236.9-83.9,236.8z M-89.1,230.1
	c-8.6,0-15.6,7-15.6,15.7s7,15.7,15.6,15.7c8.6,0,15.6-7,15.6-15.7S-80.5,230.1-89.1,230.1z M-76.4,249.1c0.3,0,0.6,0.3,0.6,0.6v1.1
	c0,0.3-0.2,0.6-0.6,0.6l-1-0.1v3c0,0.3-0.3,0.6-0.6,0.6l-9.2-0.5c-0.4,0.1-1.2,0.2-2,0.2c-0.8,0-1.5-0.1-2-0.2l-9.2,0.5
	c-0.3,0-0.6-0.2-0.6-0.6v-3l-1.1,0.1c-0.3,0-0.6-0.2-0.6-0.6v-1.1c0-0.3,0.2-0.6,0.6-0.6l1.1-0.1v-6.3l-1.1,0.1
	c-0.3,0-0.6-0.2-0.6-0.6v-1.1c0-0.3,0.2-0.6,0.6-0.6l1.1-0.1v-3.2c0-0.3,0.3-0.6,0.6-0.6l1.4-0.1c-0.2,0.4-0.4,0.8-0.7,1l0,15.4
	c0.6-0.7,1.2-2.2,1.2-2.2v-15.3c0,0,2,0.6,4.1,0.4c2.1-0.2,1.8-0.8,3.4-0.8c1.2,0,1.8,0.5,1.8,0.5s0.6-0.5,1.8-0.5
	c1.6,0,1.3,0.6,3.4,0.8c2.1,0.2,4.1-0.4,4.1-0.4v15.3c0,0,0.6,1.5,1.2,2.2l0-15.4c-0.2-0.3-0.5-0.7-0.6-1l1.4,0.1
	c0.3,0,0.6,0.3,0.6,0.6v3.2l1,0.1c0.3,0,0.6,0.3,0.6,0.6v1.1c0,0.3-0.2,0.6-0.6,0.6l-1-0.1v6.3L-76.4,249.1z"/>
<linearGradient id="SVGID_19_" gradientUnits="userSpaceOnUse" x1="271.5096" y1="1036.7662" x2="240.2326" y2="1036.7662" gradientTransform="matrix(1 0 0 1 -305 -791)">
	<stop  offset="1.020000e-002" style="stop-color:#91B0CD"/>
	<stop  offset="0.5051" style="stop-color:#EDF3F8"/>
	<stop  offset="0.8367" style="stop-color:#EDF3F8"/>
</linearGradient>
<path class="st27" d="M-49.1,230.1c-8.6,0-15.6,7-15.6,15.7s7,15.7,15.6,15.7c8.6,0,15.6-7,15.6-15.7S-40.5,230.1-49.1,230.1z
	 M-40.1,253.3c-0.4,1.5-1.4,4.2-2,5.1h-14c-0.6-0.9-1.6-3.6-2-5.1c-0.1-0.5-1.4-5.1,0.3-8.1c1.3-2.4,1.6-4.3,1.6-5.3v-3.2h-0.5v0.7
	c-0.2,0.1-0.4,0.2-0.6,0.2c-0.6,0-1.1-0.7-1.1-1.5c0-0.8,0.5-1.5,1.1-1.5c0.2,0,0.4,0.1,0.6,0.2v0.7h0.5v-2.9h2.8v2.9h1.6v-0.1
	c0-0.2,0.2-0.4,0.4-0.4c0.2,0,0.4,0.2,0.4,0.4v0.1h1.5v-0.1c0-0.2,0.2-0.4,0.4-0.4c0.2,0,0.4,0.2,0.4,0.4v0.1h1.6v-0.1
	c0-0.2,0.2-0.4,0.4-0.4c0.2,0,0.4,0.2,0.4,0.4v0.1h1.5v-2.9h2.8v2.9h0.5V235c0.2-0.1,0.4-0.2,0.6-0.2c0.6,0,1.1,0.7,1.1,1.5
	c0,0.8-0.5,1.5-1.1,1.5c-0.2,0-0.4-0.1-0.6-0.2v-0.7H-42v3.2c0,1,0.3,2.9,1.6,5.3C-38.7,248.2-40,252.8-40.1,253.3z M-48.7,254.9
	c0.6,0,1.1-0.1,1.6-0.2v-2.6c-0.5-0.1-1-0.1-1.6-0.2V254.9z M-46.4,252.3v2.2c0.9-0.3,1.4-0.7,1.4-1.1
	C-45,253-45.5,252.6-46.4,252.3z M-48.7,250.8c0.6,0,1.1-0.1,1.6-0.2v-13.8h-1.6V250.8z M-44.8,244v-7.2h-1.5v13.5
	c1.8-0.7,3-2.1,3-3.6C-43.4,245.7-44,244.7-44.8,244z M-51.1,254.8c0.5,0.1,1,0.2,1.5,0.2v-3c-0.6,0-1.1,0.1-1.5,0.2V254.8z
	 M-51.1,250.6c0.5,0.1,1,0.2,1.5,0.2v-14h-1.5V250.6z M-53.4,244c-0.9,0.7-1.4,1.7-1.4,2.7c0,1.6,1.2,2.9,3,3.6v-13.5h-1.6
	L-53.4,244L-53.4,244z M-53.3,253.5c0,0.4,0.5,0.8,1.4,1.1v-2.2C-52.7,252.6-53.3,253-53.3,253.5z"/>
<linearGradient id="SVGID_20_" gradientUnits="userSpaceOnUse" x1="173.0086" y1="1067.4252" x2="298.3349" y2="1067.4252" gradientTransform="matrix(1 0 0 1 -305 -791)">
	<stop  offset="1.020000e-002" style="stop-color:#002B54"/>
	<stop  offset="0.5153" style="stop-color:#00609F"/>
	<stop  offset="1" style="stop-color:#002B54"/>
</linearGradient>
<path class="st28" d="M-6.7,269.4l-3.5-0.5c-1.7-0.2-3.6-0.5-5.8-0.8v-3.5l-1.5-0.2c-9.4-1.3-25.9-2.9-51.9-2.9s-42.6,1.6-51.9,2.9
	l-1.5,0.2v3.5c-2.2,0.3-4.2,0.6-5.8,0.8l-3.5,0.5l0.8,2c0.7,1.9,3.1,6.8,3.9,8.4c-0.6,2.8-1,6.3-1.1,9.7l-0.1,2l2-0.3
	c2.9-0.4,6.5-0.7,11.5-1.1c0,0-0.3-0.7-0.6-1.8c-0.3-1-0.6-2-0.6-2l2-0.2c9.5-1.1,24.2-2.1,45-2.1c21.1,0,35.9,1.1,45.4,2.2l1.6,0.2
	l-0.4,1.6l-0.5,1.8c4.7,0.5,8.3,1.2,11.2,1.5l2,0.3l-0.1-2c-0.1-3.3-0.6-6.9-1.1-9.7c0.7-1.6,3.1-6.5,3.8-8.4L-6.7,269.4z"/>
<path class="st29" d="M-115.7,288.2c-1.9-6-3-13.6-3.2-18.9c-4.3,0.5-8.1,1.1-10.7,1.5c0.8,2.1,4,8.7,4,8.7c-0.6,2.7-1,6.4-1.2,10
	C-124.2,289.2-120.2,288.7-115.7,288.2z"/>
<path class="st29" d="M-9,270.8c-2.6-0.4-6.3-0.9-10.6-1.5c-0.2,4.4-1.4,12.4-3.3,19c4.5,0.4,8.5,0.9,11,1.2
	c-0.1-3.6-0.6-7.3-1.2-10C-13,279.5-9.8,272.9-9,270.8z"/>
<linearGradient id="SVGID_21_" gradientUnits="userSpaceOnUse" x1="290.0387" y1="1071.0703" x2="284.5639" y2="1069.677" gradientTransform="matrix(1 0 0 1 -305 -791)">
	<stop  offset="0" style="stop-color:#D09411"/>
	<stop  offset="0.6994" style="stop-color:#A2671F"/>
</linearGradient>
<path class="st30" d="M-14.3,270l-5.3-0.6c-0.2,4.4-1.4,12.4-3.3,18.9l5.2,0.5c0,0,1.8-4.7,2.6-8.7C-14.4,276-14.1,270-14.3,270z"/>
<linearGradient id="SVGID_22_" gradientUnits="userSpaceOnUse" x1="181.5018" y1="1070.7571" x2="186.7361" y2="1069.8341" gradientTransform="matrix(1 0 0 1 -305 -791)">
	<stop  offset="0" style="stop-color:#D09411"/>
	<stop  offset="0.7092" style="stop-color:#A2671F"/>
</linearGradient>
<path class="st31" d="M-118.9,269.4l-5.5,0.7c-0.2,0,0.1,6,0.8,10c0.7,4.1,2.6,8.7,2.6,8.7l5.4-0.5
	C-117.6,282.3-118.7,274.7-118.9,269.4z"/>
<linearGradient id="SVGID_23_" gradientUnits="userSpaceOnUse" x1="183.9988" y1="1064.8741" x2="287.3447" y2="1064.8741" gradientTransform="matrix(1 0 0 1 -305 -791)">
	<stop  offset="0" style="stop-color:#D9A40F"/>
	<stop  offset="0.5092" style="stop-color:#FFDD00"/>
	<stop  offset="1" style="stop-color:#D9A40F"/>
</linearGradient>
<path class="st32" d="M-69.3,263c-26.1,0-42.6,1.6-51.7,2.9v3.5c0,2.9,0.3,8.4,2.2,15.3c9.5-1.3,25.4-2.6,49.5-2.6
	c24.1,0,40,1.4,49.5,2.6c1.9-7,2.2-12.5,2.2-15.3v-3.5C-26.7,264.6-43.3,263-69.3,263"/>
<path class="st33" d="M-74.3,277.8c-0.2,0.1-1.2,0.3-2.9,0.3H-79c-0.1-2.2-0.2-4.1-0.2-5.7c-0.1-3.4-0.1-5.1,0.1-5.4
	c0.1-0.3,0.8-0.6,1.9-0.9l0-0.3c-1.2,0.1-2.1,0.2-2.9,0.2c-0.8,0-1.8,0-3-0.1l0,0.3c1.2,0.3,1.8,0.6,2,0.9c0.1,0.2,0.2,2,0.3,5.4
	c0.1,3.3,0.1,5.1-0.1,5.3c-0.1,0.2-0.8,0.6-1.9,0.9l0,0.3c1.2-0.1,2.3-0.2,3.4-0.2c1.2,0,3.3,0,6.4,0l0.2-3.3l-0.3,0
	C-73.7,277-74.1,277.7-74.3,277.8z M-86,275.9c-0.3,1.3-0.6,2.1-0.8,2.2c-0.1,0.1-1.1,0.3-2.9,0.4c-0.7,0-1.5,0-2.5,0
	c-0.1-1-0.2-2.4-0.3-4.3c0-0.4,0-0.8-0.1-1.2l1.7-0.1c1.8-0.1,2.7-0.1,2.9,0c0.2,0.1,0.6,0.7,0.9,1.9l0.3,0c-0.1-1.2-0.2-2-0.2-2.5
	c0-0.5,0-1.3,0-2.3l-0.3,0c-0.3,1.1-0.6,1.7-0.8,1.8c-0.2,0.1-1.2,0.2-2.9,0.3l-1.7,0.1c-0.1-2.4-0.2-4.1-0.1-5
	c0.9-0.1,1.8-0.1,2.6-0.1c1.6-0.1,2.5,0,2.7,0.1c0.2,0.1,0.6,0.8,0.9,1.9h0.3l-0.2-3.1c-1,0.2-2,0.2-3,0.3c-0.9,0-1.8,0.1-2.7,0.1
	c-0.8,0-1.6,0.1-2.3,0.1c-0.8,0.1-1.6,0.1-2.3,0l0,0.4c1.2,0.3,1.8,0.5,2,0.8c0.1,0.2,0.3,2,0.4,5.4c0.2,3.3,0.2,5.1,0.1,5.3
	c-0.1,0.2-0.7,0.6-1.9,1l0,0.3c1.3-0.2,2.6-0.3,4-0.3c1.1-0.1,3.3-0.1,6.4-0.2l-0.1-3.3L-86,275.9z M-24,279.8
	c-0.4-1.1-1.8-5.4-3.9-12.7l-0.4,0c-3.8,7.3-5.9,11.2-6.4,11.9c-0.3,0.4-0.8,0.6-1.6,0.8c-1.3-0.1-2.2-2.5-4.6-6.8
	c2.2-0.5,3.4-1.6,3.5-3.1c0.1-2-1.4-3.1-4.5-3.3c-1.2-0.1-2.6,0-4.3-0.1c-0.4,0-1-0.1-1.7-0.2l0,0.3c1.1,0.4,1.8,0.8,1.9,1
	c0.1,0.2,0.1,2-0.1,5.4c-0.2,3.3-0.4,5.1-0.5,5.3c-0.2,0.2-0.8,0.5-2,0.8l0,0.3c1.3,0,2.3,0,2.9,0c0.8,0.1,1.8,0.2,3,0.4l0-0.3
	c-1.4-0.5-1.9-0.7-1.9-1.4c0-0.4,0-1.6,0.1-3.7c0-0.4,0-0.8,0.1-1.3c0.5,0,0.8,0,1.1,0c0.3,0,0.5,0,0.7,0.1c1.3,2.1,2.6,4.4,3.8,6.8
	c0.5,0,0.9,0,1.4,0c0.4,0,0.8,0.1,1.2,0.1v0c0,0,0.1,0,0.1,0c0.1,0,0.1,0,0.2,0l0,0c0.9,0,1.6,0,2,0c0.6,0.1,1.4,0.2,2.3,0.4l0-0.4
	c-1.2-0.3-1.7-0.5-1.7-0.9c0-0.4,0.5-1.4,1.4-3.2l5.1,0.4c0.6,1.9,0.9,3.1,0.9,3.4c0,0.3-0.7,0.5-2,0.7l0,0.3c1.2,0,2.2,0,3,0.1
	c0.6,0,1.6,0.2,2.9,0.4l0-0.3C-23.3,280.7-23.8,280.4-24,279.8z M-43.3,272.4l-1.3-0.1c0.1-1.6,0.2-3.3,0.4-5.1c0.5,0,0.8,0,1.1,0
	c2.6,0.2,3.9,1,3.8,2.8C-39.5,271.8-40.8,272.5-43.3,272.4z M-31.7,275.3c1-2,1.9-3.8,2.8-5.3c0.7,2.1,1.2,4,1.7,5.7L-31.7,275.3z
	 M-99.5,278.6c-0.4-0.9-0.7-2.7-1.3-5.3c-0.5-2.3-0.8-3.9-0.9-4.8c-0.1-0.8,0.3-0.9,1.8-1.4l0-0.3c-0.7,0.1-1.4,0.2-1.9,0.2
	c-0.5,0-1.1,0.1-1.8,0.1c-1.1,3.3-2.2,6.6-3.5,10.1c-1.9-3.3-3.5-6.4-4.9-9.3c-0.9,0.1-1.6,0.2-2.3,0.3c-0.4,0-0.9,0-1.3,0l0,0.3
	c1.6,0.3,1.7,0.4,1.8,1.3c0,0.3,0.1,2.9-0.1,7.7c0,1-0.1,1.8-0.2,2.4c-0.1,0.5-0.7,0.8-1.9,1.2l0,0.3c0.9-0.2,1.7-0.3,2.5-0.4
	c0.4,0,1.2,0,2.5,0l0-0.3c-1.7-0.4-1.9-0.3-2-1.3c-0.1-1-0.1-4.1,0-9.5c1.7,3.1,3.6,6.7,5.7,10.8l0.3,0c1.2-4.2,2.5-8.1,3.8-11.6
	c1.1,4.8,1.8,8,1.9,9.5c0.1,0.8-0.2,0.8-1.9,1.4l0,0.3c1.2-0.2,2.3-0.4,3.1-0.4c0.5,0,1.4-0.1,2.7,0l0-0.3
	C-98.7,279.2-99.3,279.1-99.5,278.6z M-56.4,265.7c-2-0.1-3.7,0.6-4.9,2c-1.1,1.2-1.6,2.8-1.7,4.6c-0.1,2,0.5,3.7,1.7,5.1
	c1.1,1.3,2.6,2,4.5,2c2,0.1,3.7-0.7,4.9-2c1.1-1.3,1.7-2.8,1.7-4.6c0.1-2-0.5-3.8-1.7-5.1C-53.1,266.4-54.6,265.7-56.4,265.7z
	 M-52.3,273.2c-0.1,3.6-1.7,5.5-4.5,5.4c-2.8-0.1-4.4-2.6-4.2-6.8c0.1-3.6,1.7-5.5,4.4-5.4C-53.8,266.5-52.2,268.9-52.3,273.2z
	 M-71,265.8v0.3c1.2,0.3,1.8,0.6,2,0.9c0.1,0.2,0.2,2,0.2,5.4c0,3.3-0.1,5.1-0.2,5.3c-0.1,0.2-0.8,0.6-2,0.9v0.3
	c1.2-0.1,2.2-0.2,3-0.2c0.8,0,1.8,0.1,2.9,0.2v-0.3c-1.2-0.3-1.8-0.7-1.9-0.9c-0.1-0.2-0.2-2-0.2-5.3c0-3.4,0.1-5.1,0.2-5.4
	c0.2-0.3,0.8-0.6,1.9-0.9v-0.3c-1.2,0.1-2.2,0.2-2.9,0.2C-68.9,266-69.8,265.9-71,265.8z"/>
</svg>
