<svg xmlns="http://www.w3.org/2000/svg" width="375" height="376" viewBox="0 0 375 376" version="1.1"><path d="M 347 114.500 L 347 122 353 122 L 359 122 359 114.500 L 359 107 353 107 L 347 107 347 114.500 M 23.704 136.534 C 8.951 141.948, 4.328 160.328, 15.029 171.029 L 18.696 174.696 30.598 178.443 C 48.629 184.119, 49.101 184.313, 51.119 186.879 C 57.049 194.417, 49.436 204, 37.518 204 C 28.127 204, 21.425 199.415, 19.612 191.750 C 18.912 188.787, 17.685 188.496, 10.750 189.642 C 6.362 190.367, 6.382 190.272, 9.103 197.544 C 19.459 225.224, 65.347 218.980, 65.234 189.906 C 65.186 177.539, 60.146 173.529, 35.132 165.961 C 24.443 162.727, 21 160.169, 21 155.461 C 21 142.210, 46.172 141.830, 50.125 155.022 L 51.216 158.663 56.822 157.784 C 63.717 156.703, 63.283 157.316, 61.472 151.217 C 57.469 137.738, 39.480 130.744, 23.704 136.534 M 96.663 137.447 C 88.182 140.935, 83.220 146.580, 81.539 154.655 C 80.772 158.342, 80.993 158.527, 87.251 159.434 L 92.003 160.123 93.003 157.311 C 99.377 139.400, 127 141.447, 127 159.832 L 127 164.763 122.750 165.818 C 120.412 166.398, 113.550 167.591, 107.500 168.469 C 93.512 170.499, 87.202 173.396, 82.769 179.825 L 79.546 184.500 79.165 191.159 C 77.861 213.971, 105.407 223.630, 124.347 207 C 128.176 203.638, 128.201 203.650, 129.496 209.490 C 130.295 213.095, 143 217.036, 143 213.678 C 143 213.501, 142.359 211.364, 141.575 208.928 C 140.548 205.733, 140.025 197.120, 139.699 178 C 139.135 144.956, 138.393 142.484, 127.500 137.368 L 122.500 135.020 112.500 135.034 L 102.500 135.047 96.663 137.447 M 182.500 136.869 C 180.300 137.873, 176.813 140.437, 174.750 142.568 L 171 146.442 171 141.169 L 171 135.895 165.750 136.198 L 160.500 136.500 160.238 174.623 L 159.976 212.745 163.113 213.373 C 164.838 213.718, 167.500 214, 169.028 214 L 171.806 214 172.237 187.750 C 172.760 155.906, 174.039 151.202, 183.173 147.547 C 190.521 144.607, 196.894 146.099, 199.825 151.445 L 201.500 154.500 202 184 L 202.500 213.500 208.250 213.800 L 214 214.100 214 188.731 C 214 155.281, 216.140 148.565, 227.479 146.438 C 241.933 143.726, 243.943 148.573, 243.976 186.231 L 244 212.962 246.362 213.555 C 247.661 213.881, 250.248 214.002, 252.112 213.824 L 255.500 213.500 255.500 182.426 L 255.500 151.353 252.500 145.503 C 245.607 132.064, 227.178 130.896, 215.943 143.186 L 212.385 147.078 209.943 143.316 C 204.820 135.426, 192.174 132.455, 182.500 136.869 M 288.137 136.369 C 263.164 145.406, 269.280 171.040, 298.500 179.802 C 315.121 184.787, 317.200 186.178, 317.200 192.322 C 317.200 207.455, 290.153 208.442, 284.453 193.517 C 282.611 188.692, 281.686 188.313, 275.013 189.647 L 271.776 190.295 272.293 194.147 C 275.781 220.153, 321.242 222.613, 328.631 197.196 C 333.093 181.847, 326.654 174.163, 303.500 167.204 C 287.213 162.309, 285 160.839, 285 154.912 C 285 142.217, 308.476 141.978, 314.133 154.616 L 315.975 158.732 321.237 157.778 C 327.805 156.587, 327.468 157.121, 325.633 150.810 C 321.933 138.082, 303.268 130.894, 288.137 136.369 M 347.238 174.750 L 347.500 213.500 353 213.500 L 358.500 213.500 358.762 174.750 L 359.023 136 353 136 L 346.977 136 347.238 174.750 M 119 176.978 C 115.425 177.938, 109.593 179.272, 106.041 179.944 C 94.639 182.099, 89.982 186.762, 91.445 194.560 C 94.231 209.410, 121.646 206.736, 125.963 191.192 C 127.148 186.926, 127.362 174.944, 126.250 175.116 C 125.838 175.180, 122.575 176.018, 119 176.978 M 22 245.469 L 22 258.937 23.560 258.339 C 24.802 257.862, 25.094 256.184, 24.989 250.120 C 24.918 245.929, 24.892 241.600, 24.933 240.500 C 24.978 239.299, 27.273 242.296, 30.678 248 C 36.087 257.061, 37.561 258.950, 39.250 258.985 C 39.663 258.993, 40 252.887, 40 245.417 C 40 228.616, 37.821 226.411, 37 242.381 L 36.500 252.102 30.670 242.051 C 22.730 228.360, 22 228.648, 22 245.469 M 48.198 233.750 C 42.862 238.364, 45.059 243.619, 53.519 246.479 C 60.085 248.698, 62.060 252.020, 58.404 254.694 C 54.709 257.396, 48 255.124, 48 251.171 C 48 250.527, 47.325 250, 46.500 250 C 40.941 250, 47.126 258.034, 53.213 258.721 L 57.848 259.243 60.424 256.667 C 65.319 251.772, 62.837 244.954, 55.615 243.452 C 52.032 242.706, 48 240.375, 48 239.048 C 48 234.823, 56.065 233.644, 58.592 237.500 C 60.518 240.439, 62 240.738, 62 238.189 C 62 232.849, 52.699 229.858, 48.198 233.750 M 68 244.958 L 68 258 69.500 258 C 70.652 258, 71 256.722, 71 252.500 L 71 247 76.500 247 C 80.722 247, 82 246.652, 82 245.500 C 82 244.348, 80.722 244, 76.500 244 L 71 244 71 239.500 L 71 235 77.583 235 C 87.397 235, 85.747 232.592, 75.670 232.208 L 68 231.916 68 244.958 M 100 245.224 L 100 258.681 105.994 258.459 C 123.936 257.796, 124.431 233.323, 106.526 232.183 L 100 231.767 100 245.224 M 140 245 L 140 258 141.500 258 C 142.580 258, 143 256.895, 143 254.059 C 143 248.434, 144.571 248.208, 147.697 253.383 C 149.188 255.853, 151.217 258.085, 152.205 258.343 C 154.544 258.955, 154.568 259.044, 150.521 252.326 L 147.043 246.551 150.021 243.478 C 155.548 237.776, 152.570 237.061, 146.792 242.703 L 143 246.406 143 239.203 C 143 233.467, 142.695 232, 141.500 232 L 140 232 140 245 M 186.667 232.667 C 186.300 233.033, 186 238.883, 186 245.667 L 186 258 187.500 258 C 188.729 258, 189 256.271, 189 248.441 C 189 237.162, 189.066 237.172, 196.440 249.530 C 203.818 261.893, 204.431 261.573, 204.779 245.168 L 205.058 232 203.564 232 C 202.354 232, 202.016 233.951, 201.785 242.250 L 201.500 252.500 195.522 242.250 C 189.953 232.701, 188.358 230.975, 186.667 232.667 M 214.117 233.631 C 207.464 238.290, 207.464 252.710, 214.117 257.369 C 219.457 261.110, 228.863 257.551, 228.968 251.750 C 229.014 249.255, 226.658 249.584, 225.487 252.236 C 223.115 257.610, 215.111 256.627, 213.048 250.707 C 209.231 239.758, 218.457 229.409, 224.821 237.500 C 227.040 240.320, 229 240.768, 229 238.455 C 229 233.229, 219.217 230.058, 214.117 233.631 M 235.455 234.455 C 230.898 239.011, 233.113 243.880, 240.924 246.475 C 246.661 248.380, 248.418 250.106, 247.516 252.950 C 246.186 257.141, 237.776 256.798, 235.805 252.472 C 234.347 249.271, 231.602 249.085, 232.513 252.250 C 234.849 260.357, 248.667 261.158, 250.639 253.301 C 251.892 248.310, 248.766 244.858, 241.310 243 C 234.039 241.187, 234.550 234.582, 241.914 235.199 C 244.504 235.417, 245.774 236.125, 246.487 237.750 C 247.695 240.503, 250 240.715, 250 238.073 C 250 232.603, 239.834 230.075, 235.455 234.455 M 254.688 232.646 C 253.689 233.644, 253.890 246.817, 254.975 251.500 C 256.691 258.909, 264.039 261.449, 269.694 256.589 L 272.500 254.177 272.838 243.089 L 273.177 232 271.588 232 L 270 232 270 241.777 C 270 252.958, 268.738 256, 264.098 256 C 259.264 256, 258.110 253.539, 257.789 242.545 C 257.523 233.435, 256.658 230.675, 254.688 232.646 M 289.802 232.697 C 289.592 233.139, 289.663 238.379, 289.960 244.341 L 290.500 255.183 292.861 257.091 C 301.379 263.978, 308 257.357, 308 241.953 L 308 232 306.500 232 L 305 232 305 241.777 C 305 252.893, 303.726 256.010, 299.193 255.985 C 294.056 255.955, 293.538 254.901, 293 243.369 C 292.555 233.835, 291.281 229.584, 289.802 232.697 M 313 245.469 L 313 258.937 314.465 258.375 C 315.578 257.948, 315.998 255.555, 316.215 248.423 L 316.500 239.033 322.272 248.418 C 325.446 253.580, 328.709 258.058, 329.522 258.370 L 331 258.937 331.125 247.469 C 331.194 241.161, 331.306 235.213, 331.375 234.250 C 331.444 233.287, 330.825 232.500, 330 232.500 C 328.775 232.500, 328.500 234.195, 328.500 241.751 C 328.500 253.141, 328.525 253.142, 321.577 241.500 C 318.459 236.275, 315.254 232, 314.454 232 L 313 232 313 245.469 M 341.302 233.012 C 334.028 235.941, 333.874 253.815, 341.091 257.547 C 346.983 260.594, 356 256.984, 356 251.577 C 356 249.039, 353.555 249.758, 351.158 253 C 346.375 259.469, 339 255.029, 339 245.680 C 339 239.020, 341.635 235, 346.001 235 C 348.775 235, 352 237.189, 352 239.071 C 352 239.582, 352.900 240, 354 240 C 356.796 240, 356.494 238.340, 353.077 234.923 C 350.020 231.867, 345.834 231.187, 341.302 233.012 M 103.214 245.116 L 103.500 255.500 106 255.552 C 118.632 255.816, 120.191 236.678, 107.653 235.264 L 102.927 234.732 103.214 245.116 M 122.609 239.824 C 122.329 240.277, 122.272 243.539, 122.482 247.074 C 122.692 250.608, 122.895 254.030, 122.932 254.679 C 123.146 258.391, 129.602 260.390, 132.009 257.489 L 133.263 255.978 134.600 257.739 L 135.936 259.500 135.968 249.167 C 136.006 236.861, 133.717 234.688, 133.200 246.538 C 132.879 253.870, 131.901 256, 128.853 256 C 126.470 256, 124.824 251.919, 125.031 246.523 C 125.308 239.295, 124.433 236.873, 122.609 239.824 M 158.059 241.437 C 156.271 243.340, 155.769 245.029, 155.769 249.140 L 155.769 254.405 158.440 256.702 C 162.606 260.285, 171 258.269, 171 253.686 C 171 252.405, 168.251 252.993, 166.958 254.551 C 165.069 256.826, 160.773 255.956, 159.302 253 L 158.058 250.500 164.529 250.204 L 171 249.909 171 247.089 C 171 239.919, 162.835 236.353, 158.059 241.437 M 88.518 242.625 C 86.531 244.611, 86.888 247.912, 89.250 249.393 C 93.167 251.848, 97.154 245.048, 93.404 242.306 C 91.098 240.620, 90.483 240.660, 88.518 242.625 M 175.596 242.306 C 171.846 245.048, 175.833 251.848, 179.750 249.393 C 183.114 247.284, 181.804 241, 178 241 C 177.660 241, 176.579 241.588, 175.596 242.306 M 278.518 242.625 C 276.531 244.611, 276.888 247.912, 279.250 249.393 C 283.167 251.848, 287.154 245.048, 283.404 242.306 C 281.098 240.620, 280.483 240.660, 278.518 242.625 M 160.200 243.200 C 157.839 245.561, 158.877 247, 162.941 247 C 167.304 247, 168.806 245.677, 166.964 243.456 C 165.499 241.692, 161.846 241.554, 160.200 243.200" stroke="none" fill="#e7f7e7" fill-rule="evenodd"/><path d="M 0 188.003 L 0 376.005 187.750 375.753 L 375.500 375.500 375.753 187.750 L 376.005 0 188.003 0 L 0 0 0 188.003 M 0.490 188.500 C 0.490 291.900, 0.607 334.348, 0.750 282.829 C 0.893 231.311, 0.893 146.711, 0.750 94.829 C 0.607 42.948, 0.490 85.100, 0.490 188.500 M 347 114.500 L 347 122 353 122 L 359 122 359 114.500 L 359 107 353 107 L 347 107 347 114.500 M 23.704 136.534 C 8.951 141.948, 4.328 160.328, 15.029 171.029 L 18.696 174.696 30.598 178.443 C 48.629 184.119, 49.101 184.313, 51.119 186.879 C 57.049 194.417, 49.436 204, 37.518 204 C 28.127 204, 21.425 199.415, 19.612 191.750 C 18.912 188.787, 17.685 188.496, 10.750 189.642 C 6.362 190.367, 6.382 190.272, 9.103 197.544 C 19.459 225.224, 65.347 218.980, 65.234 189.906 C 65.186 177.539, 60.146 173.529, 35.132 165.961 C 24.443 162.727, 21 160.169, 21 155.461 C 21 142.210, 46.172 141.830, 50.125 155.022 L 51.216 158.663 56.822 157.784 C 63.717 156.703, 63.283 157.316, 61.472 151.217 C 57.469 137.738, 39.480 130.744, 23.704 136.534 M 96.663 137.447 C 88.182 140.935, 83.220 146.580, 81.539 154.655 C 80.772 158.342, 80.993 158.527, 87.251 159.434 L 92.003 160.123 93.003 157.311 C 99.377 139.400, 127 141.447, 127 159.832 L 127 164.763 122.750 165.818 C 120.412 166.398, 113.550 167.591, 107.500 168.469 C 93.512 170.499, 87.202 173.396, 82.769 179.825 L 79.546 184.500 79.165 191.159 C 77.861 213.971, 105.407 223.630, 124.347 207 C 128.176 203.638, 128.201 203.650, 129.496 209.490 C 130.295 213.095, 143 217.036, 143 213.678 C 143 213.501, 142.359 211.364, 141.575 208.928 C 140.548 205.733, 140.025 197.120, 139.699 178 C 139.135 144.956, 138.393 142.484, 127.500 137.368 L 122.500 135.020 112.500 135.034 L 102.500 135.047 96.663 137.447 M 182.500 136.869 C 180.300 137.873, 176.813 140.437, 174.750 142.568 L 171 146.442 171 141.169 L 171 135.895 165.750 136.198 L 160.500 136.500 160.238 174.623 L 159.976 212.745 163.113 213.373 C 164.838 213.718, 167.500 214, 169.028 214 L 171.806 214 172.237 187.750 C 172.760 155.906, 174.039 151.202, 183.173 147.547 C 190.521 144.607, 196.894 146.099, 199.825 151.445 L 201.500 154.500 202 184 L 202.500 213.500 208.250 213.800 L 214 214.100 214 188.731 C 214 155.281, 216.140 148.565, 227.479 146.438 C 241.933 143.726, 243.943 148.573, 243.976 186.231 L 244 212.962 246.362 213.555 C 247.661 213.881, 250.248 214.002, 252.112 213.824 L 255.500 213.500 255.500 182.426 L 255.500 151.353 252.500 145.503 C 245.607 132.064, 227.178 130.896, 215.943 143.186 L 212.385 147.078 209.943 143.316 C 204.820 135.426, 192.174 132.455, 182.500 136.869 M 288.137 136.369 C 263.164 145.406, 269.280 171.040, 298.500 179.802 C 315.121 184.787, 317.200 186.178, 317.200 192.322 C 317.200 207.455, 290.153 208.442, 284.453 193.517 C 282.611 188.692, 281.686 188.313, 275.013 189.647 L 271.776 190.295 272.293 194.147 C 275.781 220.153, 321.242 222.613, 328.631 197.196 C 333.093 181.847, 326.654 174.163, 303.500 167.204 C 287.213 162.309, 285 160.839, 285 154.912 C 285 142.217, 308.476 141.978, 314.133 154.616 L 315.975 158.732 321.237 157.778 C 327.805 156.587, 327.468 157.121, 325.633 150.810 C 321.933 138.082, 303.268 130.894, 288.137 136.369 M 347.238 174.750 L 347.500 213.500 353 213.500 L 358.500 213.500 358.762 174.750 L 359.023 136 353 136 L 346.977 136 347.238 174.750 M 119 176.978 C 115.425 177.938, 109.593 179.272, 106.041 179.944 C 94.639 182.099, 89.982 186.762, 91.445 194.560 C 94.231 209.410, 121.646 206.736, 125.963 191.192 C 127.148 186.926, 127.362 174.944, 126.250 175.116 C 125.838 175.180, 122.575 176.018, 119 176.978 M 22 245.469 L 22 258.937 23.560 258.339 C 24.802 257.862, 25.094 256.184, 24.989 250.120 C 24.918 245.929, 24.892 241.600, 24.933 240.500 C 24.978 239.299, 27.273 242.296, 30.678 248 C 36.087 257.061, 37.561 258.950, 39.250 258.985 C 39.663 258.993, 40 252.887, 40 245.417 C 40 228.616, 37.821 226.411, 37 242.381 L 36.500 252.102 30.670 242.051 C 22.730 228.360, 22 228.648, 22 245.469 M 48.198 233.750 C 42.862 238.364, 45.059 243.619, 53.519 246.479 C 60.085 248.698, 62.060 252.020, 58.404 254.694 C 54.709 257.396, 48 255.124, 48 251.171 C 48 250.527, 47.325 250, 46.500 250 C 40.941 250, 47.126 258.034, 53.213 258.721 L 57.848 259.243 60.424 256.667 C 65.319 251.772, 62.837 244.954, 55.615 243.452 C 52.032 242.706, 48 240.375, 48 239.048 C 48 234.823, 56.065 233.644, 58.592 237.500 C 60.518 240.439, 62 240.738, 62 238.189 C 62 232.849, 52.699 229.858, 48.198 233.750 M 68 244.958 L 68 258 69.500 258 C 70.652 258, 71 256.722, 71 252.500 L 71 247 76.500 247 C 80.722 247, 82 246.652, 82 245.500 C 82 244.348, 80.722 244, 76.500 244 L 71 244 71 239.500 L 71 235 77.583 235 C 87.397 235, 85.747 232.592, 75.670 232.208 L 68 231.916 68 244.958 M 100 245.224 L 100 258.681 105.994 258.459 C 123.936 257.796, 124.431 233.323, 106.526 232.183 L 100 231.767 100 245.224 M 140 245 L 140 258 141.500 258 C 142.580 258, 143 256.895, 143 254.059 C 143 248.434, 144.571 248.208, 147.697 253.383 C 149.188 255.853, 151.217 258.085, 152.205 258.343 C 154.544 258.955, 154.568 259.044, 150.521 252.326 L 147.043 246.551 150.021 243.478 C 155.548 237.776, 152.570 237.061, 146.792 242.703 L 143 246.406 143 239.203 C 143 233.467, 142.695 232, 141.500 232 L 140 232 140 245 M 186.667 232.667 C 186.300 233.033, 186 238.883, 186 245.667 L 186 258 187.500 258 C 188.729 258, 189 256.271, 189 248.441 C 189 237.162, 189.066 237.172, 196.440 249.530 C 203.818 261.893, 204.431 261.573, 204.779 245.168 L 205.058 232 203.564 232 C 202.354 232, 202.016 233.951, 201.785 242.250 L 201.500 252.500 195.522 242.250 C 189.953 232.701, 188.358 230.975, 186.667 232.667 M 214.117 233.631 C 207.464 238.290, 207.464 252.710, 214.117 257.369 C 219.457 261.110, 228.863 257.551, 228.968 251.750 C 229.014 249.255, 226.658 249.584, 225.487 252.236 C 223.115 257.610, 215.111 256.627, 213.048 250.707 C 209.231 239.758, 218.457 229.409, 224.821 237.500 C 227.040 240.320, 229 240.768, 229 238.455 C 229 233.229, 219.217 230.058, 214.117 233.631 M 235.455 234.455 C 230.898 239.011, 233.113 243.880, 240.924 246.475 C 246.661 248.380, 248.418 250.106, 247.516 252.950 C 246.186 257.141, 237.776 256.798, 235.805 252.472 C 234.347 249.271, 231.602 249.085, 232.513 252.250 C 234.849 260.357, 248.667 261.158, 250.639 253.301 C 251.892 248.310, 248.766 244.858, 241.310 243 C 234.039 241.187, 234.550 234.582, 241.914 235.199 C 244.504 235.417, 245.774 236.125, 246.487 237.750 C 247.695 240.503, 250 240.715, 250 238.073 C 250 232.603, 239.834 230.075, 235.455 234.455 M 254.688 232.646 C 253.689 233.644, 253.890 246.817, 254.975 251.500 C 256.691 258.909, 264.039 261.449, 269.694 256.589 L 272.500 254.177 272.838 243.089 L 273.177 232 271.588 232 L 270 232 270 241.777 C 270 252.958, 268.738 256, 264.098 256 C 259.264 256, 258.110 253.539, 257.789 242.545 C 257.523 233.435, 256.658 230.675, 254.688 232.646 M 289.802 232.697 C 289.592 233.139, 289.663 238.379, 289.960 244.341 L 290.500 255.183 292.861 257.091 C 301.379 263.978, 308 257.357, 308 241.953 L 308 232 306.500 232 L 305 232 305 241.777 C 305 252.893, 303.726 256.010, 299.193 255.985 C 294.056 255.955, 293.538 254.901, 293 243.369 C 292.555 233.835, 291.281 229.584, 289.802 232.697 M 313 245.469 L 313 258.937 314.465 258.375 C 315.578 257.948, 315.998 255.555, 316.215 248.423 L 316.500 239.033 322.272 248.418 C 325.446 253.580, 328.709 258.058, 329.522 258.370 L 331 258.937 331.125 247.469 C 331.194 241.161, 331.306 235.213, 331.375 234.250 C 331.444 233.287, 330.825 232.500, 330 232.500 C 328.775 232.500, 328.500 234.195, 328.500 241.751 C 328.500 253.141, 328.525 253.142, 321.577 241.500 C 318.459 236.275, 315.254 232, 314.454 232 L 313 232 313 245.469 M 341.302 233.012 C 334.028 235.941, 333.874 253.815, 341.091 257.547 C 346.983 260.594, 356 256.984, 356 251.577 C 356 249.039, 353.555 249.758, 351.158 253 C 346.375 259.469, 339 255.029, 339 245.680 C 339 239.020, 341.635 235, 346.001 235 C 348.775 235, 352 237.189, 352 239.071 C 352 239.582, 352.900 240, 354 240 C 356.796 240, 356.494 238.340, 353.077 234.923 C 350.020 231.867, 345.834 231.187, 341.302 233.012 M 103.214 245.116 L 103.500 255.500 106 255.552 C 118.632 255.816, 120.191 236.678, 107.653 235.264 L 102.927 234.732 103.214 245.116 M 122.609 239.824 C 122.329 240.277, 122.272 243.539, 122.482 247.074 C 122.692 250.608, 122.895 254.030, 122.932 254.679 C 123.146 258.391, 129.602 260.390, 132.009 257.489 L 133.263 255.978 134.600 257.739 L 135.936 259.500 135.968 249.167 C 136.006 236.861, 133.717 234.688, 133.200 246.538 C 132.879 253.870, 131.901 256, 128.853 256 C 126.470 256, 124.824 251.919, 125.031 246.523 C 125.308 239.295, 124.433 236.873, 122.609 239.824 M 158.059 241.437 C 156.271 243.340, 155.769 245.029, 155.769 249.140 L 155.769 254.405 158.440 256.702 C 162.606 260.285, 171 258.269, 171 253.686 C 171 252.405, 168.251 252.993, 166.958 254.551 C 165.069 256.826, 160.773 255.956, 159.302 253 L 158.058 250.500 164.529 250.204 L 171 249.909 171 247.089 C 171 239.919, 162.835 236.353, 158.059 241.437 M 88.518 242.625 C 86.531 244.611, 86.888 247.912, 89.250 249.393 C 93.167 251.848, 97.154 245.048, 93.404 242.306 C 91.098 240.620, 90.483 240.660, 88.518 242.625 M 175.596 242.306 C 171.846 245.048, 175.833 251.848, 179.750 249.393 C 183.114 247.284, 181.804 241, 178 241 C 177.660 241, 176.579 241.588, 175.596 242.306 M 278.518 242.625 C 276.531 244.611, 276.888 247.912, 279.250 249.393 C 283.167 251.848, 287.154 245.048, 283.404 242.306 C 281.098 240.620, 280.483 240.660, 278.518 242.625 M 160.200 243.200 C 157.839 245.561, 158.877 247, 162.941 247 C 167.304 247, 168.806 245.677, 166.964 243.456 C 165.499 241.692, 161.846 241.554, 160.200 243.200" stroke="none" fill="#43a34a" fill-rule="evenodd"/></svg>