<?xml version="1.0" encoding="UTF-8"?>
<!-- Created with Inkscape (http://www.inkscape.org/) -->
<svg width="200" height="200" version="1.0" viewBox="0 0 200 20" xml:space="preserve" xmlns="http://www.w3.org/2000/svg" xmlns:cc="http://creativecommons.org/ns#" xmlns:dc="http://purl.org/dc/elements/1.1/" xmlns:rdf="http://www.w3.org/1999/02/22-rdf-syntax-ns#"><metadata><rdf:RDF><cc:Work rdf:about=""><dc:format>image/svg+xml</dc:format><dc:type rdf:resource="http://purl.org/dc/dcmitype/StillImage"/></cc:Work></rdf:RDF></metadata>
<g transform="matrix(.55117 0 0 .55117 -9.9211 -1.2615)">
	<path d="m26.32 20.431c0-95.606 77.507-173.11 173.11-173.11 95.604 0 173.11 77.504 173.11 173.11s-77.507 173.11-173.11 173.11c-95.606-3e-3 -173.11-77.507-173.11-173.11z" fill="none" stroke="#F36E21" stroke-miterlimit="10" stroke-width="16.64"/>
	<path d="m26.32 20.431c0-95.606 77.507-173.11 173.11-173.11 95.604 0 173.11 77.504 173.11 173.11s-77.507 173.11-173.11 173.11c-95.606-3e-3 -173.11-77.507-173.11-173.11z" fill="none" stroke="#fff" stroke-miterlimit="10" stroke-width="8.32"/>
	<path d="m26.32 20.431c0-95.606 77.507-173.11 173.11-173.11 95.604 0 173.11 77.504 173.11 173.11s-77.507 173.11-173.11 173.11c-95.606-3e-3 -173.11-77.507-173.11-173.11z" fill="#fff"/><g fill="none" stroke="#F36E21" stroke-miterlimit="10">
	<path d="m26.32 20.431c0-95.606 77.507-173.11 173.11-173.11 95.604 0 173.11 77.504 173.11 173.11s-77.507 173.11-173.11 173.11c-95.606-3e-3 -173.11-77.507-173.11-173.11z" stroke-width="1.04"/>
	<path d="m74.621 20.431c0-68.935 55.882-124.81 124.81-124.81 68.932 0 124.81 55.878 124.81 124.81 0 68.931-55.881 124.81-124.81 124.81-68.932-4e-3 -124.81-55.883-124.81-124.81z" stroke-width="5.152"/>
	<path d="m80.864 20.431c0-65.485 53.082-118.57 118.57-118.57 65.486 0 118.57 53.085 118.57 118.57 0 65.487-53.088 118.58-118.57 118.58-65.488-4e-3 -118.57-53.092-118.57-118.58z" stroke-width="1.2608"/></g><g fill="#513127">
	<path d="m74.252 115.13c-0.269 0.195-0.694 0.576-1.075 0.361-0.256-0.144-0.963-1.267-1.168-1.562-1.593-2.195-0.976-4.512 1.174-6.067 3.533-2.569 5.219-0.406 7.431 2.644l-6.362 4.624zm3.949-8.461c-1.974-2.249-4.768-3.279-7.395-1.363-3.395 2.458-1.987 5.725 0.032 8.506 0.768 1.002 1.574 2.02 2.342 3.018 0.989 1.411 1.961 2.864 2.95 4.269l0.563-0.412c-0.57-0.774-1.338-1.783-0.675-2.669 0.493-0.701 2.301-2.013 3.082-2.576l6.867-5.002c0.781-0.563 2.589-1.875 3.405-2.131 1.024-0.336 1.77 0.688 2.333 1.469l0.563-0.406c-0.906-1.207-1.843-2.388-2.755-3.587-0.825-1.188-1.606-2.368-2.4-3.508l-0.557 0.406c0.563 0.781 1.318 1.764 0.675 2.676-0.5 0.7-2.301 2.006-3.082 2.576l-2.88 2.086c-0.938-1.286-0.72-1.299-0.374-2.78l2.08-7.687 0.583-2.177c-0.467-0.595-0.963-1.168-1.424-1.763-0.506-0.742-0.995-1.514-1.501-2.263l-0.557 0.406c0.707 1.389 0.63 2 0.294 3.438l-2.169 9.474" fill-rule="evenodd"/>
	<path d="m75.59 82.706c-2.669-5.476-8.637-7.956-14.189-5.252-5.363 2.618-6.938 9.018-4.413 14.189 2.55 5.231 8.8 8.013 14.188 5.382 5.445-2.659 6.993-9.04 4.414-14.319zm-17.82 8.69c-2.327-4.768 1.325-8.63 5.389-10.611 4.039-1.968 9.273-2.707 11.625 2.112 2.4 4.932-1.001 8.669-5.257 10.736-4.007 1.959-9.469 2.445-11.757-2.237" fill-rule="evenodd"/>
	<path d="m46.681 59.804c-0.63 2.361-0.726 4.031 0 6.394 1.789 5.842 7.319 8.786 13.169 7 5.881-1.795 8.438-6.925 6.649-12.774-0.755-2.479-1.994-4.249-4.112-5.712l1.264-1.136-0.118-0.375-6.307 1.934 0.157 0.512c3.725-0.188 7.056 0.4 8.288 4.438 1.562 5.101-2.57 8.188-6.918 9.52-4.327 1.318-9.901 1.325-11.476-3.837-1.024-3.344 0.538-6.274 3.587-7.743l-0.202-0.663-5.613 1.969 0.131 0.432 1.501 0.041"/>
	<path d="m52.79 46.366-1.494-10.656 4-0.557c0.95-0.138 3.162-0.451 4.006-0.262 1.069 0.243 1.245 1.469 1.382 2.425l0.682-0.099c-0.237-1.488-0.506-2.97-0.749-4.458-0.169-1.437-0.313-2.905-0.48-4.342l-0.694 0.093c0.138 0.956 0.313 2.182-0.649 2.713-0.762 0.407-2.976 0.721-3.926 0.858l-8.419 1.181c-0.95 0.138-3.162 0.444-4.006 0.256-1.069-0.243-1.245-1.469-1.376-2.419l-0.688 0.093c0.237 1.487 0.505 2.943 0.742 4.432 0.176 1.463 0.32 2.905 0.493 4.368l0.688-0.093c-0.138-0.957-0.314-2.176 0.649-2.707 0.762-0.413 2.976-0.727 3.926-0.858l3.462-0.486 1.501 10.65-3.462 0.486c-0.957 0.131-3.162 0.444-4.013 0.256-1.069-0.243-1.239-1.469-1.376-2.419l-0.682 0.093c0.243 1.52 0.512 3.001 0.749 4.518 0.176 1.438 0.32 2.874 0.48 4.288l0.688-0.099c-0.131-0.957-0.307-2.177 0.656-2.707 0.762-0.413 2.97-0.721 3.926-0.858l8.419-1.181c0.95-0.138 3.155-0.451 4.006-0.262 1.069 0.249 1.245 1.469 1.376 2.425l0.688-0.099c-0.23-1.456-0.512-2.97-0.749-4.458-0.169-1.437-0.32-2.905-0.486-4.342l-0.688 0.099c0.138 0.95 0.307 2.176-0.649 2.707-0.768 0.413-2.976 0.727-3.927 0.858l-4.006 0.563"/>
	<path d="m54.576 23.246c0.963 0.02 3.194 0.058 4.006 0.375 1.011 0.406 0.995 1.645 0.976 2.604l0.694 0.013 0.288-16.387-4.851-0.355-0.013 0.694c3.581 0.451 3.936 2.505 3.942 5.645 6e-3 1.206-0.086 3.068-1.155 3.836-0.727 0.531-2.144 0.499-3.05 0.486l-4.938-0.086c0.045-2.887 0.224-4.487 3.402-4.852l0.013-0.694c-1.238 6e-3 -2.506 0.019-3.738 0.058-1.357-0.086-2.742-0.144-4.099-0.195l-0.013 0.694c2.169 0.218 3.875 0.852 3.619 4.977l-7.136-0.125c-1.325-0.025-1.238 0.131-1.226-0.8l0.045-2.176c0.058-3.194 0.294-4.755 3.824-5.264l0.015-0.694-4.55-0.08-0.266 14.973 0.813 0.02c0.026-0.963 0.045-2.202 1.075-2.576 0.819-0.288 3.043-0.249 4.013-0.23l8.31 0.139"/>
	<path d="m60.701 6.885 0.045-0.33-1.149-0.89c1.417-1.443 2.237-2.941 2.525-4.973 0.486-3.491-0.874-7.395-4.788-7.942-3.907-0.55-5.942 2.694-7.664 5.616-1.037 1.741-2.144 3.748-4.5 3.412-1.936-0.272-2.938-2.026-2.668-3.933 0.406-2.893 2.845-3.98 5.411-4.32l0.099-0.688-5.188-0.576-0.044 0.327 1.062 0.854c-1.136 1.207-1.92 2.65-2.15 4.292-0.458 3.251 1.136 6.188 4.538 6.662 3.405 0.48 5.245-2.214 6.669-4.784 1.168-2.055 2.576-4.263 5.293-3.882 2.413 0.343 3.456 2.467 3.126 4.794-0.48 3.43-3.245 4.685-6.336 4.857l-0.1 0.691 5.819 0.813"/>
	<path d="m48.538-30.904-4.794 17.872 4.544 1.219 0.176-0.672c-3.431-1.04-3.2-2.477-2.432-5.363 0.313-1.158 0.57-2.467 1.443-2.233l13.795 3.696c2.157 0.583 2.864 1.203 2.218 4.061l0.675 0.179c0.387-1.578 0.736-3.107 1.12-4.659 0.464-1.59 0.95-3.207 1.411-4.8l-0.669-0.179c-0.874 2.794-1.802 2.982-3.949 2.407l-13.802-3.699c-0.931-0.25-0.32-1.955-0.032-3.034 0.736-2.733 1.795-3.638 4.694-3.05l0.205-0.781-4.603-0.964"/>
	<path d="m64.509-32.501c0.88 0.394 2.918 1.299 3.536 1.911 0.781 0.771 0.275 1.901-0.118 2.784l0.637 0.281 6.669-14.979-4.327-2.218-0.281 0.63c3.12 1.814 2.637 3.847 1.417 6.733-0.464 1.114-1.274 2.797-2.557 3.085-0.88 0.202-2.176-0.375-3.001-0.743l-4.519-2.009c1.175-2.64 1.962-4.042 5.024-3.136l0.281-0.634c-1.136-0.473-2.307-0.963-3.462-1.408-1.212-0.605-2.464-1.197-3.692-1.779l-0.282 0.634c1.914 1.046 3.238 2.297 1.395 5.994l-6.525-2.903c-1.212-0.541-1.193-0.365-0.813-1.219l0.88-1.984c1.299-2.915 2.131-4.262 5.581-3.35l0.282-0.634-4.157-1.85-6.086 13.68 0.743 0.33c0.394-0.877 0.893-2.01 1.987-1.946 0.864 0.055 2.906 0.96 3.783 1.354l7.605 3.376"/>
	<path d="m64.122-59.282c-0.282-0.176-0.8-0.429-0.743-0.857 0.045-0.294 0.826-1.37 1.011-1.677 1.437-2.301 3.818-2.585 6.067-1.178 3.706 2.313 2.333 4.688 0.333 7.882l-6.668-4.17zm9.318 0.493c1.356-2.672 1.257-5.648-1.501-7.373-3.555-2.218-6.058 0.304-7.875 3.219-0.644 1.088-1.28 2.218-1.927 3.309-0.938 1.44-1.914 2.887-2.851 4.33l0.589 0.368c0.512-0.816 1.155-1.907 2.224-1.629 0.838 0.202 2.726 1.382 3.542 1.895l7.206 4.502c0.819 0.512 2.708 1.693 3.258 2.352 0.694 0.826 0.025 1.897-0.486 2.717l0.589 0.368c0.768-1.296 1.52-2.605 2.294-3.901 0.787-1.21 1.593-2.378 2.349-3.536l-0.589-0.368c-0.505 0.819-1.136 1.882-2.224 1.629-0.832-0.202-2.726-1.382-3.542-1.895l-3.011-1.881c0.845-1.357 0.938-1.159 2.432-1.395l7.914-0.954 2.237-0.275c0.375-0.656 0.72-1.325 1.095-1.981 0.505-0.749 1.037-1.485 1.536-2.233l-0.589-0.365c-1.018 1.174-1.613 1.334-3.075 1.562l-9.595 1.535" fill-rule="evenodd"/>
	<path d="m90.451-74.76c0.713 0.643 2.368 2.137 2.774 2.905 0.493 0.979-0.333 1.895-0.976 2.611l0.512 0.464c0.989-1.136 1.975-2.323 2.957-3.462 0.995-1.056 2.025-2.112 2.995-3.142l-0.512-0.467c-0.643 0.72-1.475 1.638-2.499 1.245-0.806-0.323-2.458-1.811-3.174-2.461l-6.32-5.686c-0.714-0.64-2.368-2.138-2.774-2.902-0.493-0.979 0.333-1.898 0.976-2.611l-0.512-0.464c-0.989 1.136-1.949 2.301-2.957 3.462-0.995 1.053-2.006 2.086-2.995 3.142l0.512 0.467c0.649-0.72 1.475-1.638 2.499-1.245 0.807 0.323 2.458 1.811 3.174 2.46l6.32 5.684"/>
	<path d="m97.833-83.723c0.787 0.874 2.058 2.285 2.604 3.254 0.644 1.162-0.144 1.952-0.938 2.832l0.464 0.515c0.807-0.768 1.594-1.559 2.4-2.33 0.874-0.742 1.789-1.485 2.656-2.23l-0.464-0.512c-0.906 0.656-1.606 1.366-2.774 0.835-1.018-0.461-2.531-2.138-3.28-2.966l-6.768-7.526 18.355 2.691c1.056 0.186 2.112 0.365 3.149 0.528l0.675-0.602-8.695-9.655c-0.806-0.893-2.838-3.241-3.257-4.16-0.583-1.226 0.064-1.68 0.813-2.519l-0.464-0.515c-0.806 0.768-1.533 1.501-2.294 2.227-0.851 0.727-1.693 1.405-2.544 2.128l0.464 0.516c1.28-0.829 1.805-1.463 3.2-0.452 1.03 0.733 2.445 2.304 3.312 3.268l5.6 6.224-19.875-2.985c-0.563 0.55-1.133 1.136-1.686 1.683-0.736 0.621-1.475 1.2-2.205 1.824l0.464 0.515c1.226-1.066 2.067-1.216 3.651-0.858l7.437 8.27"/>
	<path d="m117.83-92.469 0.281-0.186-0.08-1.456c2.019 0.125 3.686-0.24 5.405-1.354 2.957-1.92 5.004-5.517 2.857-8.826s-5.936-2.72-9.267-2.103c-1.994 0.362-4.23 0.848-5.526-1.149-1.069-1.645-0.4-3.548 1.212-4.602 2.452-1.59 4.868-0.467 6.813 1.251l0.583-0.375-2.963-4.291-0.281 0.182 0.057 1.363c-1.657-0.07-3.257 0.288-4.649 1.19-2.749 1.789-3.92 4.915-2.051 7.798 1.875 2.88 5.114 2.502 7.987 1.895 2.32-0.467 4.906-0.854 6.4 1.45 1.332 2.044 0.407 4.221-1.562 5.504-2.906 1.888-5.664 0.624-7.824-1.597l-0.589 0.377 3.197 4.929"/>
	<path d="m138.33-126.49-16.63 8.108 2.064 4.224 0.618-0.301c-1.462-3.277-0.224-4.051 2.458-5.354 1.082-0.531 2.237-1.19 2.63-0.377l6.256 12.835c0.982 2.003 0.976 2.947-1.606 4.333l0.308 0.624c1.449-0.736 2.832-1.482 4.256-2.205 1.501-0.704 3.043-1.389 4.55-2.086l-0.307-0.621c-2.682 1.171-3.43 0.602-4.406-1.402l-6.263-12.841c-0.425-0.864 1.268-1.523 2.269-2.01 2.55-1.242 3.92-1.037 5.382 1.533l0.727-0.355-2.306-4.105"/>
	<path d="m149.8-115.44c0.313 0.912 1.043 3.018 1.018 3.885-0.038 1.101-1.2 1.504-2.112 1.814l0.218 0.656c1.417-0.519 2.851-1.079 4.269-1.597 1.376-0.441 2.787-0.867 4.144-1.299l-0.23-0.653c-0.906 0.316-2.08 0.717-2.781-0.125-0.55-0.672-1.273-2.777-1.587-3.689l-2.768-8.035c-0.313-0.912-1.043-3.018-1.018-3.888 0.039-1.098 1.207-1.5 2.112-1.811l-0.218-0.656c-1.417 0.519-2.826 1.069-4.269 1.597-1.376 0.442-2.762 0.854-4.138 1.299l0.224 0.65c0.905-0.314 2.08-0.714 2.781 0.125 0.55 0.672 1.273 2.781 1.587 3.693l2.768 8.034"/>
	<path d="m172.78-136.25-18.093 3.847 0.976 4.602 0.682-0.144c-0.63-3.533 0.755-3.981 3.673-4.602 1.175-0.253 2.451-0.618 2.637 0.269l2.976 13.971c0.464 2.179 0.224 3.091-2.611 3.814l0.144 0.682c1.587-0.368 3.113-0.752 4.662-1.117 1.632-0.317 3.293-0.605 4.918-0.922l-0.144-0.678c-2.886 0.49-3.469-0.25-3.933-2.429l-2.976-13.971c-0.202-0.944 1.6-1.171 2.688-1.402 2.774-0.592 4.058-0.061 4.851 2.794l0.793-0.17-1.243-4.544"/>
	<path d="m196.56-132.23c-0.086-1.207-0.25-3.52 0.093-4.63 0.342-1.107 1.402-1.152 2.361-1.254l-0.051-0.691c-1.143 0.112-2.25 0.25-3.357 0.355-1.174 0.054-2.326 0.074-3.501 0.125l0.055 0.695c1.174-0.077 2.387-0.048 2.893 1.187 0.362 0.909 0.525 3.226 0.602 4.278l0.464 6.583c0.281 4.029-1.645 6.336-5.789 6.627-4.118 0.288-5.776-1.801-6.045-5.648l-0.518-7.398c-0.067-0.963-0.224-3.187-0.013-4.016 0.288-1.079 1.548-1.136 2.518-1.204l-0.051-0.691c-1.533 0.138-3.03 0.301-4.563 0.438-1.411 0.067-2.864 0.112-4.275 0.182l0.045 0.688c0.97-0.067 2.202-0.15 2.663 0.845 0.355 0.791 0.512 3.011 0.582 3.978l0.5 7.184c0.381 5.437 3.126 7.146 8.505 6.771 5.712-0.4 7.651-3.373 7.267-8.845l-0.385-5.559"/>
	<path d="m222.26-136.96-18.432-1.613-0.407 4.685 0.688 0.064c0.432-3.562 1.888-3.587 4.864-3.331 1.2 0.105 2.524 0.131 2.444 1.034l-1.244 14.227c-0.195 2.221-0.688 3.024-3.606 2.89l-0.064 0.691c1.626 0.112 3.188 0.188 4.781 0.297 1.65 0.173 3.324 0.381 4.976 0.557l0.064-0.691c-2.906-0.375-3.252-1.251-3.057-3.475l1.245-14.228c0.086-0.96 1.868-0.653 2.982-0.557 2.825 0.25 3.895 1.129 3.817 4.083l0.813 0.071 0.136-4.704"/>
	<path d="m226.65-121.74c-0.229 0.935-0.773 3.098-1.264 3.814-0.63 0.896-1.83 0.602-2.762 0.365l-0.169 0.672 15.907 3.965 1.437-4.64-0.676-0.167c-1.244 3.382-3.331 3.267-6.387 2.566-1.175-0.263-2.97-0.768-3.476-1.981-0.354-0.835-0.013-2.208 0.212-3.088l1.193-4.793c2.807 0.701 4.32 1.235 3.962 4.403l0.668 0.17c0.27-1.207 0.551-2.442 0.787-3.658 0.388-1.296 0.756-2.634 1.114-3.942l-0.676-0.169c-0.7 2.064-1.699 3.581-5.664 2.406l1.731-6.925c0.32-1.29 0.15-1.238 1.057-1.011l2.105 0.525c3.101 0.774 4.569 1.356 4.269 4.915l0.675 0.169 1.102-4.416-14.531-3.622-0.189 0.793c0.932 0.23 2.132 0.531 2.263 1.619 0.093 0.864-0.444 3.024-0.675 3.962l-2.013 8.068"/>
	<path d="m259.72-104.28c5.469 2.666 11.705 0.947 14.413-4.602 2.611-5.366-0.08-11.376-5.258-13.897-5.226-2.55-11.869-0.893-14.499 4.496-2.656 5.446 0.063 11.43 5.344 14.003zm8.694-17.821c4.762 2.326 4.263 7.609 2.281 11.673-1.968 4.035-5.638 7.843-10.457 5.495-4.932-2.407-4.551-7.45-2.474-11.699 1.956-4.01 5.963-7.754 10.65-5.469" fill-rule="evenodd"/>
	<path d="m295.27-106.08c-2.662-1.821-5.338-3.625-7.994-5.446-1.437-1.043-2.863-2.112-4.349-3.193l-0.394 0.569c0.787 0.554 1.802 1.261 1.533 2.327-0.218 0.841-1.501 2.666-2.052 3.453l-4.873 6.963c-0.551 0.787-1.83 2.614-2.544 3.113-0.912 0.611-1.92-0.096-2.714-0.649l-0.394 0.569c1.325 0.89 2.595 1.706 3.869 2.56 1.238 0.909 2.486 1.856 3.73 2.762l0.4-0.566c-0.832-0.656-2.183-1.306-1.856-2.55 0.218-0.842 1.495-2.666 2.032-3.431l2.176-3.11c2.375 1.658 3.651 2.621 2.183 5.456l0.563 0.4c0.688-1.03 1.389-2.083 2.045-3.133 0.825-1.078 1.651-2.195 2.451-3.29l-0.569-0.396c-1.39 1.673-2.839 2.688-6.112 0.173l3.875-5.533c1.136-1.52 0.944-1.398 2.912-0.016 1.188 0.829 2.611 1.792 3.344 3.001 0.781 1.248 0.308 2.458-0.144 3.725l0.569 0.397 2.313-4.155"/>
	<path d="m319.18-83.797-12.852-13.309-3.382 3.267 0.479 0.496c2.662-2.403 3.776-1.466 5.85 0.678 0.832 0.867 1.817 1.757 1.168 2.387l-10.269 9.92c-1.606 1.549-2.506 1.831-4.624-0.186l-0.499 0.48c1.155 1.146 2.288 2.23 3.417 3.363 1.133 1.213 2.257 2.467 3.39 3.68l0.492-0.48c-1.936-2.189-1.625-3.075-0.025-4.624l10.275-9.923c0.694-0.669 1.843 0.733 2.617 1.536 1.962 2.038 2.202 3.405 0.202 5.587l0.563 0.586 3.198-3.458"/>
	<path d="m312.52-69.595c-0.78 0.566-2.589 1.878-3.417 2.112-1.063 0.288-1.789-0.713-2.355-1.494l-0.557 0.41 9.632 13.261 4.086-2.63-0.406-0.563c-3.136 1.795-4.656 0.365-6.544-2.137-0.736-0.957-1.789-2.5-1.396-3.757 0.27-0.864 1.411-1.696 2.145-2.228l4-2.902c1.699 2.339 2.512 3.722 0.205 5.923l0.406 0.56c0.982-0.749 1.987-1.52 2.95-2.294 1.136-0.749 2.275-1.536 3.389-2.311l-0.406-0.56c-1.862 1.13-3.606 1.651-5.888-1.798l5.782-4.198c1.068-0.778 0.905-0.851 1.456-0.093l1.273 1.757c1.875 2.582 2.63 3.974 0.112 6.509l0.406 0.563 3.68-2.675-8.8-12.115-0.656 0.477c0.563 0.781 1.286 1.779 0.694 2.701-0.479 0.72-2.288 2.032-3.068 2.599l-6.723 4.883"/>
	<path d="m341.59-46.856c0.163-2.445-0.067-4.096-1.226-6.278-2.873-5.402-8.864-7.235-14.263-4.358-5.43 2.886-6.963 8.41-4.086 13.808 1.213 2.291 2.762 3.789 5.12 4.822l-1.018 1.36 0.188 0.342 5.824-3.098-0.256-0.477c-3.613 0.896-7.002 0.957-8.982-2.768-2.499-4.71 0.963-8.528 4.982-10.666 3.987-2.122 9.462-3.19 11.993 1.574 1.645 3.085 0.669 6.263-2.045 8.285l0.327 0.611 5.126-3.001-0.205-0.397-1.479 0.241"/>
	<path d="m338.3-32.376 3.325 10.23-3.844 1.245c-0.918 0.304-3.036 0.992-3.907 0.957-1.094-0.061-1.475-1.235-1.775-2.15l-0.656 0.214c0.493 1.424 1.018 2.835 1.514 4.259 0.419 1.385 0.819 2.81 1.232 4.192l0.662-0.208c-0.301-0.918-0.682-2.093 0.176-2.784 0.676-0.538 2.8-1.226 3.712-1.523l8.087-2.627c0.912-0.297 3.036-0.989 3.9-0.95 1.095 0.054 1.481 1.232 1.776 2.147l0.662-0.214c-0.493-1.424-1.005-2.81-1.507-4.233-0.426-1.408-0.813-2.807-1.245-4.218l-0.656 0.211c0.295 0.918 0.682 2.093-0.176 2.781-0.682 0.538-2.8 1.229-3.719 1.529l-3.324 1.082-3.318-10.234 3.318-1.078c0.918-0.298 3.037-0.992 3.907-0.954 1.094 0.057 1.475 1.232 1.775 2.15l0.656-0.215c-0.499-1.453-1.023-2.867-1.526-4.32-0.419-1.386-0.813-2.777-1.219-4.134l-0.656 0.211c0.294 0.916 0.675 2.093-0.176 2.781-0.682 0.538-2.807 1.229-3.719 1.53l-8.08 2.621c-0.918 0.301-3.037 0.989-3.907 0.957-1.095-0.061-1.475-1.235-1.775-2.15l-0.663 0.211c0.486 1.398 1.018 2.838 1.521 4.262 0.412 1.386 0.813 2.806 1.231 4.195l0.663-0.214c-0.301-0.916-0.682-2.093 0.169-2.781 0.682-0.537 2.807-1.226 3.719-1.523l3.843-1.255"/>
	<path d="m341.35-9.455c-1.161 0.186-3.037 0.48-4.144 0.413-1.325-0.093-1.562-1.188-1.862-2.33l-0.688 0.109c0.205 1.098 0.438 2.188 0.644 3.283 0.15 1.136 0.269 2.307 0.419 3.44l0.688-0.109c-0.058-1.12-0.269-2.09 0.813-2.781 0.938-0.605 3.174-0.96 4.275-1.133l10-1.584-12.258 13.934c-0.732 0.784-1.462 1.571-2.156 2.352l0.138 0.893 12.825-2.029c1.193-0.192 4.269-0.618 5.265-0.471 1.344 0.186 1.382 0.973 1.673 2.058l0.682-0.105c-0.201-1.101-0.426-2.099-0.617-3.136-0.145-1.107-0.25-2.188-0.4-3.29l-0.682 0.106c-6e-3 1.526 0.243 2.313-1.369 2.931-1.181 0.464-3.258 0.79-4.544 0.995l-8.27 1.312 13.325-15.046c-0.15-0.771-0.336-1.565-0.486-2.333-0.125-0.957-0.205-1.888-0.333-2.845l-0.682 0.105c0.218 1.613-0.111 2.397-1.273 3.53l-10.983 1.731"/>
	<path d="m337.58 23.003c-0.105 6.08 4.087 11.012 10.263 11.12 5.968 0.105 10.275-4.886 10.374-10.637 0.1-5.811-4.205-11.133-10.201-11.238-6.055-0.105-10.33 4.88-10.436 10.755zm19.824 0.346c-0.093 5.306-5.095 7.082-9.613 7.005-4.492-0.08-9.494-1.795-9.401-7.155 0.093-5.481 4.832-7.267 9.556-7.187 4.466 0.079 9.554 2.124 9.458 7.337" fill-rule="evenodd"/>
	<path d="m342.47 40.148c-0.951-0.156-3.155-0.505-3.914-0.925-0.95-0.55-0.755-1.77-0.604-2.72l-0.682-0.112c-0.781 5.127-1.6 10.275-2.32 15.405-0.138 0.493-0.256 1.024-0.361 1.533l5.226 1.101 0.112-0.742c-1.619-0.531-2.727-0.887-3.411-2.525-0.605-1.344-0.295-2.943-0.074-4.342 0.602-3.776 1.318-4.275 5.133-3.668l8.807 1.396c0.957 0.15 3.155 0.499 3.914 0.925 0.95 0.544 0.755 1.764 0.604 2.72l0.682 0.105c0.211-1.52 0.387-3.018 0.602-4.544 0.256-1.417 0.537-2.813 0.793-4.236l-0.681-0.105c-0.151 0.957-0.35 2.176-1.418 2.399-0.852 0.17-3.056-0.182-4.007-0.332l-8.401-1.333"/>
	<path d="m330.14 65.803c-1.981 5.757 0.486 11.738 6.326 13.751 5.645 1.936 11.28-1.476 13.155-6.919 1.895-5.494-0.563-11.888-6.23-13.836-5.728-1.975-11.338 1.449-13.251 7.004zm18.749 6.458c-1.731 5.012-7.037 5.162-11.313 3.687-4.243-1.456-8.467-4.637-6.727-9.706 1.782-5.187 6.839-5.424 11.313-3.881 4.214 1.449 8.422 4.969 6.727 9.9" fill-rule="evenodd"/>
	<path d="m334.18 104.11 0.156-0.288-0.873-1.213c2.063-0.925 3.619-2.611 4.7-4.563 3.05-5.508 1.024-11.488-4.349-14.468-5.219-2.893-10.649-1.043-13.501 4.093-0.832 1.501-1.231 2.97-1.293 4.694-6e-3 2.132 0.119 2.406-0.95 4.326l2.794 1.549c1.318 0.733 1.913 1.338 1.094 2.743l0.605 0.336 3.83-6.906-0.608-0.329c-1.023 1.532-1.73 2-3.5 1.018-2.714-1.501-2.977-3.955-1.514-6.589 2.486-4.48 7.206-3.862 11.155-1.674 4.169 2.313 8.294 6.052 5.449 11.188-1.699 3.056-4.899 3.795-7.949 2.343l-0.307 0.557 5.061 3.183"/>
	<path d="m314.88 110.88 3.744 9.351c0.596 1.463 1.149 2.676 0.218 4.163l0.557 0.42c0.576-0.813 1.107-1.619 1.681-2.433 0.675-0.851 1.356-1.651 2.038-2.499l-0.557-0.419c-0.563 0.595-1.401 1.657-2.32 0.97-0.864-0.649-2.531-4.852-2.995-5.994l-1.293-3.389 8.157 1.245c0.748 0.112 1.532 0.176 2.163 0.644 0.813 0.617-0.195 1.855-0.596 2.387l0.551 0.413c0.832-1.143 1.639-2.313 2.464-3.463 0.845-1.068 1.725-2.138 2.563-3.2l-0.551-0.419c-0.531 0.506-0.727 1.005-1.488 1.069-1.475 0.211-6.512-0.721-7.193-0.819l-5.494-0.669-2.982-2.25c-2.263-1.699-2.336-1.907-0.768-4.387l-0.558-0.413c-0.898 1.245-1.775 2.506-2.675 3.751-0.932 1.187-1.888 2.354-2.819 3.535l0.557 0.42c1.933-2.164 2.105-2.145 4.394-0.426l3.202 2.412"/>
	<path d="m172.26 159.12c-2.445 0.742-4.355 0.486-6.838 0.118l-0.125 0.589 1.706 0.368c0.65 0.137 1.562 0.326 1.744 0.918 0.211 0.631-0.093 2.051-0.23 2.694l-2.224 10.493c-0.15 0.675-0.525 2.451-0.912 2.982-0.519 0.688-2.413 0.195-3.188 0.063l-0.144 0.676c1.507 0.287 3.024 0.55 4.531 0.845 1.469 0.336 2.931 0.713 4.4 1.056l0.144-0.682c-0.813-0.23-2.557-0.451-2.611-1.481-0.039-0.839 0.224-2.073 0.4-2.899l3.347-15.74"/>
	<path d="m189.64 173.04c1.85 1.03 3.782 2.067 3.658 4.538-0.131 2.438-2.263 3.926-4.605 3.801-2.8-0.144-4.493-1.801-4.342-4.63 0.112-2.17 1.088-4.02 3.063-4.938l2.226 1.229zm1.933-2.25c1.894-0.988 3.43-2.176 3.548-4.492 0.074-1.411-0.701-2.72-1.805-3.562-1.069-0.813-2.493-1.22-3.817-1.287-1.507-0.079-3.063 0.263-4.263 1.227-1.069 0.911-1.805 2.229-1.875 3.612-0.131 2.467 1.417 3.993 3.382 5.155-2.342 0.995-4.48 2.544-4.63 5.338-0.169 3.344 3.389 5.126 6.307 5.279 3.424 0.183 6.733-1.85 6.925-5.494 0.138-2.707-1.58-4.521-3.772-5.776zm-2.615-1.376c-1.706-0.905-3.731-1.948-3.619-4.144 0.119-2.17 2.013-3.245 4.026-3.136 2.531 0.131 3.811 2.099 3.686 4.479-0.08 1.651-0.899 2.787-2.099 3.869l-1.994-1.068" fill-rule="evenodd"/>
	<path d="m203.53 178.78c1.449-1.85 3.404-3.318 5.318-4.669 2.563-1.812 5.101-3.533 5.219-7.023 0.131-3.764-2.938-5.738-6.368-5.856-2.857-0.1-6.138 1.351-6.249 4.63-0.074 2.112 1.133 3.783 3.331 3.856 1.324 0.045 2.768-0.774 2.97-2.157-0.468 0.465-1.024 0.839-1.712 0.813-1.601-0.058-2.602-1.626-2.544-3.101 0.066-2.138 1.775-3.438 3.817-3.37 2.714 0.1 3.837 2.486 3.757 4.899-0.145 4-2.938 6.288-5.619 8.787-1.805 1.712-3.556 3.52-4.774 5.651l1.532 0.058 8.701 0.301c0.576 0.019 0.97-0.058 0.857 0.637l-0.1 1.081 0.663 0.02 0.995-4.211-9.794-0.346"/>
	<path d="m231.8 170.34c0.211 2.8 1.306 9.095-2.781 9.667-2.204 0.313-2.031-2.569-3.855-2.319-0.742 0.105-1.168 0.774-1.069 1.462 0.243 1.731 2.801 1.98 4.177 1.789 5.968-0.839 6.969-7.77 6.294-12.569-0.576-4.094-3.113-8.727-8-8.039-3.795 0.538-6.138 4.183-5.632 7.795 0.467 3.37 3.168 5.907 6.727 5.412 2.021-0.286 3.166-1.479 4.139-3.198zm-0.167-1.194c-0.668 1.526-1.811 3.113-3.605 3.369-3.188 0.445-3.812-2.662-4.15-5.081-0.35-2.506-0.5-5.949 2.78-6.413 3.521-0.493 4.368 3.824 4.732 6.394l0.243 1.731" fill-rule="evenodd"/>
	</g><path d="m267.78 161.12c1.521-0.774 2.138-2.589 1.376-4.074-0.755-1.488-2.575-2.038-3.999-1.312-1.508 0.768-2.145 2.569-1.383 4.063 0.755 1.486 2.599 2.043 4.006 1.323" fill="#fff"/><g fill="#513127">
	<path d="m113.06-8.68c0-1.033-0.189-2.819 1.037-3.382 0.845-0.374 4.989-0.093 6.112-0.093 8.473 0 13.174 5.824 13.174 14.093 0 13.619-8.563 13.901-20.327 13.901v-24.519h4e-3zm14.112 25.459c9.318-0.845 17.037-6.013 17.037-16.154 0-13.059-10.826-15.507-21.549-15.507-3.949 0.096-8 0.288-11.949 0.377-5.363-0.09-10.825-0.282-16.188-0.377v2.166c3.011 0 6.963-0.096 8 3.194 0.845 2.538 0.845 9.488 0.845 12.489v26.493c0 3.011 0 9.962-0.845 12.499-1.037 3.193-4.989 3.193-8 3.193v2.157c4.707-0.093 9.411-0.281 14.112-0.374 4.519 0.093 8.944 0.281 13.267 0.374v-2.157c-3.011 0-6.867 0.093-7.993-3.193-0.852-2.537-0.852-9.488-0.852-12.499v-11.081c4.989 0 4.611 0.563 7.719 4.131l15.619 19.356 4.425 5.443c2.349-0.093 4.701-0.281 7.056-0.374 2.826 0.093 5.645 0.281 8.467 0.374v-2.157c-4.8-0.755-6.211-2.066-9.226-5.542l-19.945-22.831" fill-rule="evenodd"/>
	<path d="m194.14 29.461c0 3.011 0 9.962-0.938 12.499-1.226 3.193-5.088 3.193-8.093 3.193v2.157c4.701-0.093 9.501-0.281 14.205-0.374 4.519 0.093 9.13 0.281 13.549 0.374v-2.157c-3.012 0-6.867 0-8.093-3.193-0.938-2.537-0.938-9.488-0.938-12.499v-26.493c0-3.001 0-9.952 0.938-12.489 1.226-3.194 5.081-3.194 8.093-3.194v-2.166c-4.701 0.096-9.411 0.288-14.206 0.377-4.519-0.09-9.03-0.282-13.549-0.377v2.166c3.005 0 6.867 0 8.093 3.194 0.938 2.538 0.938 9.488 0.938 12.489v26.493"/>
	<path d="m303.94-14.881h-57.773v14.656h2.164c0.374-11.174 4.893-11.648 14.204-11.648 3.77 0 7.907-0.282 7.907 2.538v44.528c0 6.956-1.318 9.587-10.444 9.961v2.157c5.081-0.093 9.968-0.281 14.963-0.374 5.175 0.093 10.445 0.281 15.619 0.374v-2.157c-9.133-0.374-10.444-3.005-10.444-9.961v-44.529c0-3.008 5.645-2.538 9.126-2.538 8.845 0 12.419 2.441 12.989 11.648h2.537l-0.848-14.655"/>
	</g><path d="m164.18 15.947c0-1.843 1.495-3.338 3.338-3.338 1.85 0 3.344 1.495 3.344 3.338 0 1.837-1.494 3.331-3.344 3.331-1.843 0-3.338-1.494-3.338-3.331z"/>
	<path d="m164.18 15.947c0-1.843 1.495-3.338 3.338-3.338 1.85 0 3.344 1.495 3.344 3.338 0 1.837-1.494 3.331-3.344 3.331-1.843 0-3.338-1.494-3.338-3.331z" fill="#513127"/>
	<path d="m164.18 15.947c0-1.843 1.495-3.338 3.338-3.338 1.85 0 3.344 1.495 3.344 3.338 0 1.837-1.494 3.331-3.344 3.331-1.843 0-3.338-1.494-3.338-3.331z" fill="none" stroke="#513127" stroke-miterlimit="10" stroke-width="2.08"/>
	<path d="m227.53 15.947c0-1.843 1.495-3.338 3.345-3.338 1.843 0 3.337 1.495 3.337 3.338 0 1.837-1.494 3.331-3.337 3.331-1.853 0-3.345-1.494-3.345-3.331z"/>
	<path d="m227.53 15.947c0-1.843 1.495-3.338 3.345-3.338 1.843 0 3.337 1.495 3.337 3.338 0 1.837-1.494 3.331-3.337 3.331-1.853 0-3.345-1.494-3.345-3.331z" fill="#513127"/>
	<path d="m227.53 15.947c0-1.843 1.495-3.338 3.345-3.338 1.843 0 3.337 1.495 3.337 3.338 0 1.837-1.494 3.331-3.337 3.331-1.853 0-3.345-1.494-3.345-3.331z" fill="none" stroke="#513127" stroke-miterlimit="10" stroke-width="2.08"/>
	<path d="m123.83 150.78c0-2.544-2.106-4.624-4.682-4.624s-4.63 2.08-4.63 4.624c0 2.576 2.058 4.682 4.63 4.682s4.682-2.106 4.682-4.682" fill="#513127"/>
	<path d="m280.07 152.24c0-2.544-2.106-4.624-4.682-4.624-2.57 0-4.624 2.08-4.624 4.624 0 2.576 2.058 4.682 4.624 4.682 2.576 0 4.682-2.105 4.682-4.682" fill="#513127"/>
</g>
</svg>
